# This file uses centimeters as units for non-parametric coordinates.

mtllib deformed cage.mtl
g default
v 0.244296 0.811429 0.000000
v 0.223542 0.790456 0.000000
v 0.385318 0.721480 0.000000
v 0.326898 0.691155 0.000000
v 0.311021 0.731628 0.000000
v 0.295098 0.696937 0.000000
v 0.267859 0.719344 0.000000
v 0.265637 0.682909 0.000000
v 0.307838 0.609322 0.000000
v 0.258955 0.657726 0.000000
v 0.219690 0.638838 0.000000
v 0.230624 0.608023 0.000000
v 0.246529 0.609017 0.000000
v 0.255476 0.632377 0.000000
v 0.321074 0.412028 0.000000
v 0.345331 0.395926 0.000000
v 0.317001 0.360638 0.000000
v 0.247120 0.346721 0.000000
v 0.243641 0.319386 0.000000
v 0.345828 0.323361 0.000000
v 0.369685 0.346721 0.000000
v 0.342050 0.533515 0.000000
v 0.399602 0.350895 0.000000
v 0.487078 0.292246 0.000000
v 0.504019 0.265904 0.000000
v 0.692105 0.243872 0.000000
v 0.606014 0.243233 0.000000
v 0.594098 0.221550 0.000000
v 0.754948 0.215611 0.000000
v 0.728782 0.262142 0.000000
v 0.703951 0.301272 0.000000
v 0.538767 0.323559 0.000000
v 0.510437 0.353380 0.000000
v 0.514414 0.377237 0.000000
v 0.619811 0.611967 0.000000
v 0.464142 0.658332 0.000000
v 0.544665 0.816339 0.000000
v 0.440765 0.784807 0.000000
v 0.585982 0.481144 0.000000
v 0.408549 0.590457 0.000000
v 0.213367 0.557603 0.000000
v 0.457007 0.631417 0.000000
v 0.323359 0.739110 0.000000
v 0.310750 0.779929 0.000000
v 0.267345 0.807517 0.000000
vn 0.000000 0.000000 1.000000
vn 0.000000 0.000000 1.000000
vn 0.000000 0.000000 1.000000
vn 0.000000 0.000000 1.000000
vn 0.000000 0.000000 1.000000
vn 0.000000 0.000000 1.000000
vn 0.000000 0.000000 1.000000
vn 0.000000 0.000000 1.000000
vn 0.000000 0.000000 1.000000
vn 0.000000 0.000000 1.000000
vn 0.000000 0.000000 1.000000
vn 0.000000 0.000000 1.000000
vn 0.000000 0.000000 1.000000
vn 0.000000 0.000000 1.000000
vn 0.000000 0.000000 1.000000
vn 0.000000 0.000000 1.000000
vn 0.000000 0.000000 1.000000
vn 0.000000 0.000000 1.000000
vn 0.000000 0.000000 1.000000
vn 0.000000 0.000000 1.000000
vn 0.000000 0.000000 1.000000
vn 0.000000 0.000000 1.000000
vn 0.000000 0.000000 1.000000
vn 0.000000 0.000000 1.000000
vn 0.000000 0.000000 1.000000
vn 0.000000 0.000000 1.000000
vn 0.000000 0.000000 1.000000
vn 0.000000 0.000000 1.000000
vn 0.000000 0.000000 1.000000
vn 0.000000 0.000000 1.000000
vn 0.000000 0.000000 1.000000
vn 0.000000 0.000000 1.000000
vn 0.000000 0.000000 1.000000
vn 0.000000 0.000000 1.000000
vn 0.000000 0.000000 1.000000
vn 0.000000 0.000000 1.000000
vn 0.000000 0.000000 1.000000
vn 0.000000 0.000000 1.000000
vn 0.000000 0.000000 1.000000
vn 0.000000 0.000000 1.000000
vn 0.000000 0.000000 1.000000
vn 0.000000 0.000000 1.000000
vn 0.000000 0.000000 1.000000
vn 0.000000 0.000000 1.000000
vn 0.000000 0.000000 1.000000
s off
g polySurface1
f 1//1 2//2 3//3 4//4 5//5 6//6 7//7 8//8 9//9 10//10 11//11 12//12 13//13 14//14 15//15 16//16 17//17 18//18 19//19 20//20 21//21 22//22 23//23 24//24 25//25 26//26 27//27 28//28 29//29 30//30 31//31 32//32 33//33 34//34 35//35 36//36 37//37 38//38 39//39 40//40 41//41 42//42 43//43 44//44 45//45
