# This file uses centimeters as units for non-parametric coordinates.

mtllib source 2.mtl
g default
v -2.115995 0.012987 0.000000
v -2.065995 -0.019013 0.000000
v -1.928996 0.003987 0.000000
v -1.943996 -0.046013 0.000000
v -2.008995 -0.085013 0.000000
v -1.941996 -0.111013 0.000000
v -1.963995 -0.178013 0.000000
v -1.901995 -0.163013 0.000000
v -1.774995 -0.049013 0.000000
v -1.622995 -0.140013 0.000000
v -1.701995 -0.178013 0.000000
v -1.679995 -0.240013 0.000000
v -1.647995 -0.238013 0.000000
v -1.629995 -0.191013 0.000000
v -1.497995 -0.195013 0.000000
v -1.415995 -0.505013 0.000000
v -1.472995 -0.576013 0.000000
v -1.602995 -0.604012 0.000000
v -1.609995 -0.659013 0.000000
v -1.414995 -0.651012 0.000000
v -1.366995 -0.604012 0.000000
v -1.316995 -0.453013 0.000000
v -1.339995 -0.318013 0.000000
v -1.163995 -0.436012 0.000000
v -1.144995 -0.489013 0.000000
v -1.188995 -0.565012 0.000000
v -1.325995 -0.604012 0.000000
v -1.345995 -0.641013 0.000000
v -1.137995 -0.646013 0.000000
v -1.078995 -0.572012 0.000000
v -1.048995 -0.448013 0.000000
v -1.059995 -0.373013 0.000000
v -1.116995 -0.313013 0.000000
v -1.108995 -0.265012 0.000000
v -0.867996 -0.085013 0.000000
v -0.336995 -0.037013 0.000000
v -0.157995 0.038987 0.000000
v -0.183995 0.068987 0.000000
v -0.935995 0.196987 0.000000
v -1.321995 0.163987 0.000000
v -1.613995 0.060987 0.000000
v -1.781995 0.182987 0.000000
v -2.006995 0.198987 0.000000
v -2.081995 0.156987 0.000000
v -2.117995 0.059987 0.000000
vn 0.000000 0.000000 1.000000
vn 0.000000 0.000000 1.000000
vn 0.000000 0.000000 1.000000
vn 0.000000 0.000000 1.000000
vn 0.000000 0.000000 1.000000
vn 0.000000 0.000000 1.000000
vn 0.000000 0.000000 1.000000
vn 0.000000 0.000000 1.000000
vn 0.000000 0.000000 1.000000
vn 0.000000 0.000000 1.000000
vn 0.000000 0.000000 1.000000
vn 0.000000 0.000000 1.000000
vn 0.000000 0.000000 1.000000
vn 0.000000 0.000000 1.000000
vn 0.000000 0.000000 1.000000
vn 0.000000 0.000000 1.000000
vn 0.000000 0.000000 1.000000
vn 0.000000 0.000000 1.000000
vn 0.000000 0.000000 1.000000
vn 0.000000 0.000000 1.000000
vn 0.000000 0.000000 1.000000
vn 0.000000 0.000000 1.000000
vn 0.000000 0.000000 1.000000
vn 0.000000 0.000000 1.000000
vn 0.000000 0.000000 1.000000
vn 0.000000 0.000000 1.000000
vn 0.000000 0.000000 1.000000
vn 0.000000 0.000000 1.000000
vn 0.000000 0.000000 1.000000
vn 0.000000 0.000000 1.000000
vn 0.000000 0.000000 1.000000
vn 0.000000 0.000000 1.000000
vn 0.000000 0.000000 1.000000
vn 0.000000 0.000000 1.000000
vn 0.000000 0.000000 1.000000
vn 0.000000 0.000000 1.000000
vn 0.000000 0.000000 1.000000
vn 0.000000 0.000000 1.000000
vn 0.000000 0.000000 1.000000
vn 0.000000 0.000000 1.000000
vn 0.000000 0.000000 1.000000
vn 0.000000 0.000000 1.000000
vn 0.000000 0.000000 1.000000
vn 0.000000 0.000000 1.000000
vn 0.000000 0.000000 1.000000
s off
g polySurface1
f 1//1 2//2 3//3 4//4 5//5 6//6 7//7 8//8 9//9 10//10 11//11 12//12 13//13 14//14 15//15 16//16 17//17 18//18 19//19 20//20 21//21 22//22 23//23 24//24 25//25 26//26 27//27 28//28 29//29 30//30 31//31 32//32 33//33 34//34 35//35 36//36 37//37 38//38 39//39 40//40 41//41 42//42 43//43 44//44 45//45
