<?xml version="1.0" encoding="UTF-8" standalone="no"?>
<!-- Created with Inkscape (http://www.inkscape.org/) -->

<svg
   xmlns:dc="http://purl.org/dc/elements/1.1/"
   xmlns:cc="http://creativecommons.org/ns#"
   xmlns:rdf="http://www.w3.org/1999/02/22-rdf-syntax-ns#"
   xmlns:svg="http://www.w3.org/2000/svg"
   xmlns="http://www.w3.org/2000/svg"
   xmlns:sodipodi="http://sodipodi.sourceforge.net/DTD/sodipodi-0.dtd"
   xmlns:inkscape="http://www.inkscape.org/namespaces/inkscape"
   width="117.12223mm"
   height="163.04225mm"
   viewBox="0 0 117.12223 163.04225"
   version="1.1"
   id="svg8"
   inkscape:version="0.92.1 r15371"
   sodipodi:docname="before convexification2.svg">
  <defs
     id="defs2">
    <clipPath
       id="clipPath28"
       clipPathUnits="userSpaceOnUse">
      <path
         inkscape:connector-curvature="0"
         id="path26"
         d="M 0,8.33203 H 3320 V 4630.002 H 0 Z" />
    </clipPath>
    <clipPath
       id="clipPath232"
       clipPathUnits="userSpaceOnUse">
      <path
         inkscape:connector-curvature="0"
         id="path230"
         d="M 432.5,4283.33 H 3010 V 515.832 H 432.5 Z" />
    </clipPath>
    <clipPath
       id="clipPath252"
       clipPathUnits="userSpaceOnUse">
      <path
         inkscape:connector-curvature="0"
         id="path250"
         d="M 0,8 V 4630 H 3320 V 8 Z" />
    </clipPath>
  </defs>
  <sodipodi:namedview
     id="base"
     pagecolor="#ffffff"
     bordercolor="#666666"
     borderopacity="1.0"
     inkscape:pageopacity="0.0"
     inkscape:pageshadow="2"
     inkscape:zoom="1.979899"
     inkscape:cx="353.13678"
     inkscape:cy="327.97501"
     inkscape:document-units="mm"
     inkscape:current-layer="g1650"
     showgrid="false"
     inkscape:window-width="2560"
     inkscape:window-height="1378"
     inkscape:window-x="-8"
     inkscape:window-y="-8"
     inkscape:window-maximized="1"
     fit-margin-top="0"
     fit-margin-left="0"
     fit-margin-right="0"
     fit-margin-bottom="0" />
  <metadata
     id="metadata5">
    <rdf:RDF>
      <cc:Work
         rdf:about="">
        <dc:format>image/svg+xml</dc:format>
        <dc:type
           rdf:resource="http://purl.org/dc/dcmitype/StillImage" />
        <dc:title></dc:title>
      </cc:Work>
    </rdf:RDF>
  </metadata>
  <g
     inkscape:label="Layer 1"
     inkscape:groupmode="layer"
     id="layer1"
     transform="translate(-52.941867,-42.17678)">
    <g
       id="g20"
       transform="matrix(0.03527778,0,0,-0.03527778,7.2067476,195.87458)">
      <g
         id="g22" />
      <flowRoot
         xml:space="preserve"
         id="flowRoot509"
         style="font-style:normal;font-weight:normal;font-size:40px;line-height:125%;font-family:Sans;letter-spacing:0px;word-spacing:0px;fill:#000000;fill-opacity:1;stroke:none;stroke-width:1px;stroke-linecap:butt;stroke-linejoin:miter;stroke-opacity:1"
         transform="matrix(7.4999995,0,0,-7.4999995,-204.28575,5552.3499)"><flowRegion
           id="flowRegion511"><rect
             id="rect513"
             width="37.857143"
             height="88.571426"
             x="-127.14286"
             y="371.80539" /></flowRegion><flowPara
           id="flowPara515" /></flowRoot>      <g
         id="g3379">
        <g
           transform="translate(1296.4285,-273.21427)"
           id="g1650">
          <path
             transform="translate(-1.2401574e-6,2.4212599e-5)"
             inkscape:connector-curvature="0"
             id="path30"
             style="fill:#ffffff;fill-opacity:1;fill-rule:nonzero;stroke:none;stroke-width:4.988976;stroke-miterlimit:10;stroke-dasharray:none"
             d="M 0,8.33203 H 3320 V 4630.002 H 0 Z" />
          <path
             inkscape:connector-curvature="0"
             id="path32"
             style="fill:#ffffff;fill-opacity:1;fill-rule:evenodd;stroke:none;stroke-width:4.988976;stroke-miterlimit:10;stroke-dasharray:none"
             d="m 432.5,516.668 h 2576.67 v 3766.66 H 432.5 Z"
             transform="translate(-1.2401574e-6,2.4212599e-5)" />
          <path
             transform="translate(-1.2401574e-6,2.4212599e-5)"
             inkscape:connector-curvature="0"
             id="path34"
             style="fill:none;stroke:#ffffff;stroke-width:4.988976;stroke-linecap:butt;stroke-linejoin:round;stroke-miterlimit:10;stroke-dasharray:none;stroke-opacity:1"
             d="M 432.5,516.668 V 4283.33 H 3009.17 V 516.668 H 432.5" />
          <path
             inkscape:connector-curvature="0"
             id="path36"
             style="fill:none;stroke:#000000;stroke-width:4.21590614;stroke-linecap:butt;stroke-linejoin:round;stroke-miterlimit:10;stroke-dasharray:none;stroke-opacity:1"
             d="m 432.5,4283.33 h 1840" />
          <path
             inkscape:connector-curvature="0"
             id="path38"
             style="fill:none;stroke:#000000;stroke-width:4.21590614;stroke-linecap:butt;stroke-linejoin:round;stroke-miterlimit:10;stroke-dasharray:none;stroke-opacity:1"
             d="m 432.5,516.66802 h 1840" />
          <path
             inkscape:connector-curvature="0"
             id="path40"
             style="fill:none;stroke:#000000;stroke-width:4.988976;stroke-linecap:butt;stroke-linejoin:round;stroke-miterlimit:10;stroke-dasharray:none;stroke-opacity:1"
             d="M 2272.5629,516.66802 V 4283.33" />
          <path
             transform="translate(-1.2401574e-6,2.4212599e-5)"
             inkscape:connector-curvature="0"
             id="path42"
             style="fill:none;stroke:#000000;stroke-width:4.988976;stroke-linecap:butt;stroke-linejoin:round;stroke-miterlimit:10;stroke-dasharray:none;stroke-opacity:1"
             d="M 432.5,516.668 V 4283.33" />
          <path
             inkscape:connector-curvature="0"
             id="path44"
             style="fill:none;stroke:#000000;stroke-width:4.21590614;stroke-linecap:butt;stroke-linejoin:round;stroke-miterlimit:10;stroke-dasharray:none;stroke-opacity:1"
             d="m 432.5,516.66802 h 1840" />
          <path
             transform="translate(-1.2401574e-6,2.4212599e-5)"
             inkscape:connector-curvature="0"
             id="path46"
             style="fill:none;stroke:#000000;stroke-width:4.988976;stroke-linecap:butt;stroke-linejoin:round;stroke-miterlimit:10;stroke-dasharray:none;stroke-opacity:1"
             d="M 432.5,516.668 V 4283.33" />
          <path
             transform="translate(-1.2401574e-6,2.4212599e-5)"
             inkscape:connector-curvature="0"
             id="path48"
             style="fill:none;stroke:#000000;stroke-width:4.988976;stroke-linecap:butt;stroke-linejoin:round;stroke-miterlimit:10;stroke-dasharray:none;stroke-opacity:1"
             d="M 432.5,516.668 V 555" />
          <path
             transform="translate(-1.2401574e-6,2.4212599e-5)"
             inkscape:connector-curvature="0"
             id="path50"
             style="fill:none;stroke:#000000;stroke-width:4.988976;stroke-linecap:butt;stroke-linejoin:round;stroke-miterlimit:10;stroke-dasharray:none;stroke-opacity:1"
             d="m 432.5,4283.33 v -37.5" />
          <g
             transform="matrix(9.9999999,0,0,9.9999999,-1.2401574e-6,2.4212599e-5)"
             id="g52"
             style="stroke-width:0.49889761;stroke-miterlimit:10;stroke-dasharray:none">
            <text
               id="text56"
               style="font-variant:normal;font-weight:normal;font-size:10px;font-family:Helvetica;-inkscape-font-specification:Helvetica;writing-mode:lr-tb;fill:#000000;fill-opacity:1;fill-rule:nonzero;stroke:none;stroke-width:0.49889761;stroke-miterlimit:10;stroke-dasharray:none"
               transform="matrix(1,0,0,-1,40.5,39.5832)">
              <tspan
                 id="tspan54"
                 y="0"
                 x="0"
                 style="stroke-width:0.49889761;stroke-miterlimit:10;stroke-dasharray:none">0</tspan>
            </text>
          </g>
          <path
             transform="translate(-1.2401574e-6,2.4212599e-5)"
             inkscape:connector-curvature="0"
             id="path58"
             style="fill:none;stroke:#000000;stroke-width:4.988976;stroke-linecap:butt;stroke-linejoin:round;stroke-miterlimit:10;stroke-dasharray:none;stroke-opacity:1"
             d="M 800,516.668 V 555" />
          <path
             transform="translate(-1.2401574e-6,2.4212599e-5)"
             inkscape:connector-curvature="0"
             id="path60"
             style="fill:none;stroke:#000000;stroke-width:4.988976;stroke-linecap:butt;stroke-linejoin:round;stroke-miterlimit:10;stroke-dasharray:none;stroke-opacity:1"
             d="m 800,4283.33 v -37.5" />
          <g
             transform="matrix(9.9999999,0,0,9.9999999,-1.2401574e-6,2.4212599e-5)"
             id="g62"
             style="stroke-width:0.49889761;stroke-miterlimit:10;stroke-dasharray:none">
            <text
               id="text66"
               style="font-variant:normal;font-weight:normal;font-size:10px;font-family:Helvetica;-inkscape-font-specification:Helvetica;writing-mode:lr-tb;fill:#000000;fill-opacity:1;fill-rule:nonzero;stroke:none;stroke-width:0.49889761;stroke-miterlimit:10;stroke-dasharray:none"
               transform="matrix(1,0,0,-1,73.0832,39.5832)">
              <tspan
                 id="tspan64"
                 sodipodi:role="line"
                 y="0"
                 x="0 5.5599999 8.3400002">0.1</tspan>
            </text>
          </g>
          <path
             transform="translate(-1.2401574e-6,2.4212599e-5)"
             inkscape:connector-curvature="0"
             id="path68"
             style="fill:none;stroke:#000000;stroke-width:4.988976;stroke-linecap:butt;stroke-linejoin:round;stroke-miterlimit:10;stroke-dasharray:none;stroke-opacity:1"
             d="M 1168.33,516.668 V 555" />
          <path
             transform="translate(-1.2401574e-6,2.4212599e-5)"
             inkscape:connector-curvature="0"
             id="path70"
             style="fill:none;stroke:#000000;stroke-width:4.988976;stroke-linecap:butt;stroke-linejoin:round;stroke-miterlimit:10;stroke-dasharray:none;stroke-opacity:1"
             d="m 1168.33,4283.33 v -37.5" />
          <g
             transform="matrix(9.9999999,0,0,9.9999999,-1.2401574e-6,2.4212599e-5)"
             id="g72"
             style="stroke-width:0.49889761;stroke-miterlimit:10;stroke-dasharray:none">
            <text
               id="text76"
               style="font-variant:normal;font-weight:normal;font-size:10px;font-family:Helvetica;-inkscape-font-specification:Helvetica;writing-mode:lr-tb;fill:#000000;fill-opacity:1;fill-rule:nonzero;stroke:none;stroke-width:0.49889761;stroke-miterlimit:10;stroke-dasharray:none"
               transform="matrix(1,0,0,-1,109.917,39.5832)">
              <tspan
                 id="tspan74"
                 sodipodi:role="line"
                 y="0"
                 x="0 5.5599999 8.3400002">0.2</tspan>
            </text>
          </g>
          <path
             transform="translate(-1.2401574e-6,2.4212599e-5)"
             inkscape:connector-curvature="0"
             id="path78"
             style="fill:none;stroke:#000000;stroke-width:4.988976;stroke-linecap:butt;stroke-linejoin:round;stroke-miterlimit:10;stroke-dasharray:none;stroke-opacity:1"
             d="M 1536.67,516.668 V 555" />
          <path
             transform="translate(-1.2401574e-6,2.4212599e-5)"
             inkscape:connector-curvature="0"
             id="path80"
             style="fill:none;stroke:#000000;stroke-width:4.988976;stroke-linecap:butt;stroke-linejoin:round;stroke-miterlimit:10;stroke-dasharray:none;stroke-opacity:1"
             d="m 1536.67,4283.33 v -37.5" />
          <g
             transform="matrix(9.9999999,0,0,9.9999999,-1.2401574e-6,2.4212599e-5)"
             id="g82"
             style="stroke-width:0.49889761;stroke-miterlimit:10;stroke-dasharray:none">
            <text
               id="text86"
               style="font-variant:normal;font-weight:normal;font-size:10px;font-family:Helvetica;-inkscape-font-specification:Helvetica;writing-mode:lr-tb;fill:#000000;fill-opacity:1;fill-rule:nonzero;stroke:none;stroke-width:0.49889761;stroke-miterlimit:10;stroke-dasharray:none"
               transform="matrix(1,0,0,-1,146.75,39.5832)">
              <tspan
                 id="tspan84"
                 sodipodi:role="line"
                 y="0"
                 x="0 5.5599999 8.3400002">0.3</tspan>
            </text>
          </g>
          <path
             transform="translate(-1.2401574e-6,2.4212599e-5)"
             inkscape:connector-curvature="0"
             id="path88"
             style="fill:none;stroke:#000000;stroke-width:4.988976;stroke-linecap:butt;stroke-linejoin:round;stroke-miterlimit:10;stroke-dasharray:none;stroke-opacity:1"
             d="M 1904.17,516.668 V 555" />
          <path
             transform="translate(-1.2401574e-6,2.4212599e-5)"
             inkscape:connector-curvature="0"
             id="path90"
             style="fill:none;stroke:#000000;stroke-width:4.988976;stroke-linecap:butt;stroke-linejoin:round;stroke-miterlimit:10;stroke-dasharray:none;stroke-opacity:1"
             d="m 1904.17,4283.33 v -37.5" />
          <g
             transform="matrix(9.9999999,0,0,9.9999999,-1.2401574e-6,2.4212599e-5)"
             id="g92"
             style="stroke-width:0.49889761;stroke-miterlimit:10;stroke-dasharray:none">
            <text
               id="text96"
               style="font-variant:normal;font-weight:normal;font-size:10px;font-family:Helvetica;-inkscape-font-specification:Helvetica;writing-mode:lr-tb;fill:#000000;fill-opacity:1;fill-rule:nonzero;stroke:none;stroke-width:0.49889761;stroke-miterlimit:10;stroke-dasharray:none"
               transform="matrix(1,0,0,-1,183.5,39.5832)">
              <tspan
                 id="tspan94"
                 sodipodi:role="line"
                 y="0"
                 x="0 5.5599999 8.3400002">0.4</tspan>
            </text>
          </g>
          <path
             transform="translate(-1.2401574e-6,2.4212599e-5)"
             inkscape:connector-curvature="0"
             id="path98"
             style="fill:none;stroke:#000000;stroke-width:4.988976;stroke-linecap:butt;stroke-linejoin:round;stroke-miterlimit:10;stroke-dasharray:none;stroke-opacity:1"
             d="M 2272.5,516.668 V 555" />
          <path
             transform="translate(-1.2401574e-6,2.4212599e-5)"
             inkscape:connector-curvature="0"
             id="path100"
             style="fill:none;stroke:#000000;stroke-width:4.988976;stroke-linecap:butt;stroke-linejoin:round;stroke-miterlimit:10;stroke-dasharray:none;stroke-opacity:1"
             d="m 2272.5,4283.33 v -37.5" />
          <g
             transform="matrix(9.9999999,0,0,9.9999999,-1.2401574e-6,2.4212599e-5)"
             id="g102"
             style="stroke-width:0.49889761;stroke-miterlimit:10;stroke-dasharray:none">
            <text
               id="text106"
               style="font-variant:normal;font-weight:normal;font-size:10px;font-family:Helvetica;-inkscape-font-specification:Helvetica;writing-mode:lr-tb;fill:#000000;fill-opacity:1;fill-rule:nonzero;stroke:none;stroke-width:0.49889761;stroke-miterlimit:10;stroke-dasharray:none"
               transform="matrix(1,0,0,-1,220.333,39.5832)">
              <tspan
                 id="tspan104"
                 sodipodi:role="line"
                 y="0"
                 x="0 5.5599999 8.3400002">0.5</tspan>
            </text>
          </g>
          <path
             transform="translate(-1.2401574e-6,2.4212599e-5)"
             inkscape:connector-curvature="0"
             id="path128"
             style="fill:none;stroke:#000000;stroke-width:4.988976;stroke-linecap:butt;stroke-linejoin:round;stroke-miterlimit:10;stroke-dasharray:none;stroke-opacity:1"
             d="M 432.5,516.668 H 470" />
          <g
             transform="matrix(9.9999999,0,0,9.9999999,-1.2401574e-6,2.4212599e-5)"
             id="g132"
             style="stroke-width:0.49889761;stroke-miterlimit:10;stroke-dasharray:none">
            <text
               id="text136"
               style="font-variant:normal;font-weight:normal;font-size:10px;font-family:Helvetica;-inkscape-font-specification:Helvetica;writing-mode:lr-tb;fill:#000000;fill-opacity:1;fill-rule:nonzero;stroke:none;stroke-width:0.49889761;stroke-miterlimit:10;stroke-dasharray:none"
               transform="matrix(1,0,0,-1,20.6668,48)">
              <tspan
                 id="tspan134"
                 sodipodi:role="line"
                 y="0"
                 x="0 5.8400002 11.4 14.18">−0.8</tspan>
            </text>
          </g>
          <path
             transform="translate(-1.2401574e-6,2.4212599e-5)"
             inkscape:connector-curvature="0"
             id="path138"
             style="fill:none;stroke:#000000;stroke-width:4.988976;stroke-linecap:butt;stroke-linejoin:round;stroke-miterlimit:10;stroke-dasharray:none;stroke-opacity:1"
             d="M 432.5,987.5 H 470" />
          <path
             inkscape:connector-curvature="0"
             id="path140"
             style="fill:none;stroke:#000000;stroke-width:4.988976;stroke-linecap:butt;stroke-linejoin:round;stroke-miterlimit:10;stroke-dasharray:none;stroke-opacity:1"
             d="m 2274.17,987.50002 h -38.34" />
          <g
             transform="matrix(9.9999999,0,0,9.9999999,-1.2401574e-6,2.4212599e-5)"
             id="g142"
             style="stroke-width:0.49889761;stroke-miterlimit:10;stroke-dasharray:none">
            <text
               id="text146"
               style="font-variant:normal;font-weight:normal;font-size:10px;font-family:Helvetica;-inkscape-font-specification:Helvetica;writing-mode:lr-tb;fill:#000000;fill-opacity:1;fill-rule:nonzero;stroke:none;stroke-width:0.49889761;stroke-miterlimit:10;stroke-dasharray:none"
               transform="matrix(1,0,0,-1,20.6668,95.0832)">
              <tspan
                 id="tspan144"
                 sodipodi:role="line"
                 y="0"
                 x="0 5.8400002 11.4 14.18">−0.6</tspan>
            </text>
          </g>
          <path
             transform="translate(-1.2401574e-6,2.4212599e-5)"
             inkscape:connector-curvature="0"
             id="path148"
             style="fill:none;stroke:#000000;stroke-width:4.988976;stroke-linecap:butt;stroke-linejoin:round;stroke-miterlimit:10;stroke-dasharray:none;stroke-opacity:1"
             d="M 432.5,1458.33 H 470" />
          <path
             inkscape:connector-curvature="0"
             id="path150"
             style="fill:none;stroke:#000000;stroke-width:4.988976;stroke-linecap:butt;stroke-linejoin:round;stroke-miterlimit:10;stroke-dasharray:none;stroke-opacity:1"
             d="m 2274.17,1458.33 h -38.34" />
          <g
             transform="matrix(9.9999999,0,0,9.9999999,-1.2401574e-6,2.4212599e-5)"
             id="g152"
             style="stroke-width:0.49889761;stroke-miterlimit:10;stroke-dasharray:none">
            <text
               id="text156"
               style="font-variant:normal;font-weight:normal;font-size:10px;font-family:Helvetica;-inkscape-font-specification:Helvetica;writing-mode:lr-tb;fill:#000000;fill-opacity:1;fill-rule:nonzero;stroke:none;stroke-width:0.49889761;stroke-miterlimit:10;stroke-dasharray:none"
               transform="matrix(1,0,0,-1,20.6668,142.167)">
              <tspan
                 id="tspan154"
                 sodipodi:role="line"
                 y="0"
                 x="0 5.8400002 11.4 14.18">−0.4</tspan>
            </text>
          </g>
          <path
             transform="translate(-1.2401574e-6,2.4212599e-5)"
             inkscape:connector-curvature="0"
             id="path158"
             style="fill:none;stroke:#000000;stroke-width:4.988976;stroke-linecap:butt;stroke-linejoin:round;stroke-miterlimit:10;stroke-dasharray:none;stroke-opacity:1"
             d="M 432.5,1929.17 H 470" />
          <path
             inkscape:connector-curvature="0"
             id="path160"
             style="fill:none;stroke:#000000;stroke-width:4.988976;stroke-linecap:butt;stroke-linejoin:round;stroke-miterlimit:10;stroke-dasharray:none;stroke-opacity:1"
             d="m 2274.17,1929.17 h -38.34" />
          <g
             transform="matrix(9.9999999,0,0,9.9999999,-1.2401574e-6,2.4212599e-5)"
             id="g162"
             style="stroke-width:0.49889761;stroke-miterlimit:10;stroke-dasharray:none">
            <text
               id="text166"
               style="font-variant:normal;font-weight:normal;font-size:10px;font-family:Helvetica;-inkscape-font-specification:Helvetica;writing-mode:lr-tb;fill:#000000;fill-opacity:1;fill-rule:nonzero;stroke:none;stroke-width:0.49889761;stroke-miterlimit:10;stroke-dasharray:none"
               transform="matrix(1,0,0,-1,20.6668,189.25)">
              <tspan
                 id="tspan164"
                 sodipodi:role="line"
                 y="0"
                 x="0 5.8400002 11.4 14.18">−0.2</tspan>
            </text>
          </g>
          <path
             transform="translate(-1.2401574e-6,2.4212599e-5)"
             inkscape:connector-curvature="0"
             id="path168"
             style="fill:none;stroke:#000000;stroke-width:4.988976;stroke-linecap:butt;stroke-linejoin:round;stroke-miterlimit:10;stroke-dasharray:none;stroke-opacity:1"
             d="M 432.5,2400 H 470" />
          <g
             transform="matrix(9.9999999,0,0,9.9999999,-1.2401574e-6,2.4212599e-5)"
             id="g172"
             style="stroke-width:0.49889761;stroke-miterlimit:10;stroke-dasharray:none">
            <text
               id="text176"
               style="font-variant:normal;font-weight:normal;font-size:10px;font-family:Helvetica;-inkscape-font-specification:Helvetica;writing-mode:lr-tb;fill:#000000;fill-opacity:1;fill-rule:nonzero;stroke:none;stroke-width:0.49889761;stroke-miterlimit:10;stroke-dasharray:none"
               transform="matrix(1,0,0,-1,34.8332,236.333)">
              <tspan
                 id="tspan174"
                 y="0"
                 x="0"
                 style="stroke-width:0.49889761;stroke-miterlimit:10;stroke-dasharray:none">0</tspan>
            </text>
          </g>
          <path
             transform="translate(-1.2401574e-6,2.4212599e-5)"
             inkscape:connector-curvature="0"
             id="path178"
             style="fill:none;stroke:#000000;stroke-width:4.988976;stroke-linecap:butt;stroke-linejoin:round;stroke-miterlimit:10;stroke-dasharray:none;stroke-opacity:1"
             d="M 432.5,2870.83 H 470" />
          <path
             inkscape:connector-curvature="0"
             id="path180"
             style="fill:none;stroke:#000000;stroke-width:4.988976;stroke-linecap:butt;stroke-linejoin:round;stroke-miterlimit:10;stroke-dasharray:none;stroke-opacity:1"
             d="m 2274.17,2870.83 h -38.34" />
          <g
             transform="matrix(9.9999999,0,0,9.9999999,-1.2401574e-6,2.4212599e-5)"
             id="g182"
             style="stroke-width:0.49889761;stroke-miterlimit:10;stroke-dasharray:none">
            <text
               id="text186"
               style="font-variant:normal;font-weight:normal;font-size:10px;font-family:Helvetica;-inkscape-font-specification:Helvetica;writing-mode:lr-tb;fill:#000000;fill-opacity:1;fill-rule:nonzero;stroke:none;stroke-width:0.49889761;stroke-miterlimit:10;stroke-dasharray:none"
               transform="matrix(1,0,0,-1,26.5,283.417)">
              <tspan
                 id="tspan184"
                 sodipodi:role="line"
                 y="0"
                 x="0 5.5599999 8.3400002">0.2</tspan>
            </text>
          </g>
          <path
             transform="translate(-1.2401574e-6,2.4212599e-5)"
             inkscape:connector-curvature="0"
             id="path188"
             style="fill:none;stroke:#000000;stroke-width:4.988976;stroke-linecap:butt;stroke-linejoin:round;stroke-miterlimit:10;stroke-dasharray:none;stroke-opacity:1"
             d="M 432.5,3342.5 H 470" />
          <path
             inkscape:connector-curvature="0"
             id="path190"
             style="fill:none;stroke:#000000;stroke-width:4.988976;stroke-linecap:butt;stroke-linejoin:round;stroke-miterlimit:10;stroke-dasharray:none;stroke-opacity:1"
             d="m 2274.17,3342.5 h -38.34" />
          <g
             transform="matrix(9.9999999,0,0,9.9999999,-1.2401574e-6,2.4212599e-5)"
             id="g192"
             style="stroke-width:0.49889761;stroke-miterlimit:10;stroke-dasharray:none">
            <text
               id="text196"
               style="font-variant:normal;font-weight:normal;font-size:10px;font-family:Helvetica;-inkscape-font-specification:Helvetica;writing-mode:lr-tb;fill:#000000;fill-opacity:1;fill-rule:nonzero;stroke:none;stroke-width:0.49889761;stroke-miterlimit:10;stroke-dasharray:none"
               transform="matrix(1,0,0,-1,26.5,330.583)">
              <tspan
                 id="tspan194"
                 sodipodi:role="line"
                 y="0"
                 x="0 5.5599999 8.3400002">0.4</tspan>
            </text>
          </g>
          <path
             transform="translate(-1.2401574e-6,2.4212599e-5)"
             inkscape:connector-curvature="0"
             id="path198"
             style="fill:none;stroke:#000000;stroke-width:4.988976;stroke-linecap:butt;stroke-linejoin:round;stroke-miterlimit:10;stroke-dasharray:none;stroke-opacity:1"
             d="M 432.5,3812.5 H 470" />
          <path
             inkscape:connector-curvature="0"
             id="path200"
             style="fill:none;stroke:#000000;stroke-width:4.988976;stroke-linecap:butt;stroke-linejoin:round;stroke-miterlimit:10;stroke-dasharray:none;stroke-opacity:1"
             d="m 2274.17,3812.5 h -38.34" />
          <g
             transform="matrix(9.9999999,0,0,9.9999999,-1.2401574e-6,2.4212599e-5)"
             id="g202"
             style="stroke-width:0.49889761;stroke-miterlimit:10;stroke-dasharray:none">
            <text
               id="text206"
               style="font-variant:normal;font-weight:normal;font-size:10px;font-family:Helvetica;-inkscape-font-specification:Helvetica;writing-mode:lr-tb;fill:#000000;fill-opacity:1;fill-rule:nonzero;stroke:none;stroke-width:0.49889761;stroke-miterlimit:10;stroke-dasharray:none"
               transform="matrix(1,0,0,-1,26.5,377.583)">
              <tspan
                 id="tspan204"
                 sodipodi:role="line"
                 y="0"
                 x="0 5.5599999 8.3400002">0.6</tspan>
            </text>
          </g>
          <path
             transform="translate(-1.2401574e-6,2.4212599e-5)"
             inkscape:connector-curvature="0"
             id="path208"
             style="fill:none;stroke:#000000;stroke-width:4.988976;stroke-linecap:butt;stroke-linejoin:round;stroke-miterlimit:10;stroke-dasharray:none;stroke-opacity:1"
             d="M 432.5,4283.33 H 470" />
          <g
             transform="matrix(9.9999999,0,0,9.9999999,-1.2401574e-6,2.4212599e-5)"
             id="g212"
             style="stroke-width:0.49889761;stroke-miterlimit:10;stroke-dasharray:none">
            <text
               id="text216"
               style="font-variant:normal;font-weight:normal;font-size:10px;font-family:Helvetica;-inkscape-font-specification:Helvetica;writing-mode:lr-tb;fill:#000000;fill-opacity:1;fill-rule:nonzero;stroke:none;stroke-width:0.49889761;stroke-miterlimit:10;stroke-dasharray:none"
               transform="matrix(1,0,0,-1,26.5,424.667)">
              <tspan
                 id="tspan214"
                 sodipodi:role="line"
                 y="0"
                 x="0 5.5599999 8.3400002">0.8</tspan>
            </text>
          </g>
          <path
             inkscape:connector-curvature="0"
             id="path218"
             style="fill:none;stroke:#000000;stroke-width:4.21590614;stroke-linecap:butt;stroke-linejoin:round;stroke-miterlimit:10;stroke-dasharray:none;stroke-opacity:1"
             d="m 432.5,4283.33 h 1840" />
          <path
             inkscape:connector-curvature="0"
             id="path220"
             style="fill:none;stroke:#000000;stroke-width:4.21590614;stroke-linecap:butt;stroke-linejoin:round;stroke-miterlimit:10;stroke-dasharray:none;stroke-opacity:1"
             d="m 432.5,516.66802 h 1840" />
          <path
             inkscape:connector-curvature="0"
             id="path222"
             style="fill:none;stroke:#000000;stroke-width:4.988976;stroke-linecap:butt;stroke-linejoin:round;stroke-miterlimit:10;stroke-dasharray:none;stroke-opacity:1"
             d="M 2272.5629,516.66802 V 4283.33" />
          <path
             transform="translate(-1.2401574e-6,2.4212599e-5)"
             inkscape:connector-curvature="0"
             id="path224"
             style="fill:none;stroke:#000000;stroke-width:4.988976;stroke-linecap:butt;stroke-linejoin:round;stroke-miterlimit:10;stroke-dasharray:none;stroke-opacity:1"
             d="M 432.5,516.668 V 4283.33" />
          <g
             id="g226">
            <g
               id="g228"
               clip-path="url(#clipPath232)">
              <path
                 d="m 432.5,768.332 36.668,24.168 36.664,23.332 36.668,24.168 36.668,25 36.664,24.168 37.5,25 36.668,25 36.668,25.832 36.664,25.832 36.668,25.838 36.668,26.66 37.5,25.84 36.664,27.5 36.668,26.66 36.668,27.5 36.662,28.34 36.67,28.33 37.5,28.33 36.67,29.17 36.66,29.17 36.67,29.16 36.67,30 36.66,30.84 37.5,30.83 36.67,30.83 36.67,31.67 36.66,31.67 36.67,32.5 36.67,33.33 37.5,33.33 36.66,34.17 36.67,34.17 36.67,35 36.66,35 37.5,35.83 36.67,36.67 36.67,37.5 36.66,37.5 36.67,38.33 36.67,38.33 37.5,40 36.66,40 36.67,40.84 36.67,41.66 36.66,42.5 175.9557,214.7685"
                 style="fill:none;stroke:#00ff00;stroke-width:30;stroke-linecap:butt;stroke-linejoin:round;stroke-miterlimit:10;stroke-dasharray:none;stroke-opacity:1"
                 id="path234"
                 inkscape:connector-curvature="0"
                 sodipodi:nodetypes="ccccccccccccccccccccccccccccccccccccccccccccccc" />
              <path
                 d="m 432.5,4032.5 36.668,-23.33 36.664,-23.34 36.668,-23.33 36.668,-22.5 36.664,-22.5 37.5,-22.5 36.668,-21.67 36.668,-22.5 36.664,-21.66 36.668,-21.67 36.668,-20.83 37.5,-21.67 36.664,-20.83 36.668,-20.84 36.668,-20 36.662,-20.83 36.67,-20 37.5,-20 36.67,-20 36.66,-19.17 36.67,-20 36.67,-19.16 36.66,-19.17 37.5,-19.17 36.67,-19.16 36.67,-18.34 36.66,-19.16 36.67,-18.34 36.67,-18.33 37.5,-18.33 36.66,-17.5 36.67,-18.34 36.67,-17.5 36.66,-17.5 37.5,-17.5 36.67,-17.5 36.67,-17.5 36.66,-16.66 36.67,-17.5 36.67,-16.67 37.5,-16.67 36.66,-16.66 36.67,-16.67 36.67,-15.83 36.66,-16.67 36.67,-15.83 139.2857,-59.5271"
                 style="fill:none;stroke:#00ff00;stroke-width:30;stroke-linecap:butt;stroke-linejoin:round;stroke-miterlimit:10;stroke-dasharray:none;stroke-opacity:1"
                 id="path236"
                 inkscape:connector-curvature="0"
                 sodipodi:nodetypes="cccccccccccccccccccccccccccccccccccccccccccccccc" />
              <path
                 d="M 1904.17,516.668 V 4283.33"
                 style="fill:none;stroke:#0000ff;stroke-width:30;stroke-linecap:butt;stroke-linejoin:round;stroke-miterlimit:10;stroke-dasharray:none;stroke-opacity:1"
                 id="path240"
                 inkscape:connector-curvature="0" />
              <path
                 d="M 432.5,2400 H 2269.656"
                 style="fill:none;stroke:#000000;stroke-width:8.44528675;stroke-linecap:butt;stroke-linejoin:round;stroke-miterlimit:10;stroke-dasharray:none;stroke-opacity:1"
                 id="path242"
                 inkscape:connector-curvature="0" />
            </g>
            <path
               style="fill:#0000ff;fill-opacity:1;stroke:#000000;stroke-width:0.59392577;stroke-miterlimit:4;stroke-dasharray:none;stroke-dashoffset:0;stroke-opacity:0"
               d="M 234.55438,178.17384 C 174.06905,149.29782 127.78997,124.57667 81.621016,96.480592 58.018874,82.11753 58.142431,82.202054 58.133676,80.413092 c -0.0043,-0.883928 0.302368,-1.607143 0.681542,-1.607143 0.379173,0 3.513102,1.825396 6.964285,4.056435 19.907416,12.869272 58.743127,35.410756 88.060597,51.113176 26.89985,14.40755 82.13783,41.84245 95.53571,47.44947 1.73619,0.7266 2.32143,1.41928 2.32143,2.74765 0,0.97687 -0.24107,1.75309 -0.53571,1.72493 -0.29465,-0.0281 -7.76786,-3.50385 -16.60715,-7.72377 z"
               id="path4649"
               inkscape:connector-curvature="0"
               transform="matrix(7.4999995,0,0,-7.4999995,-2.474645e-7,4630.002)" />
            <path
               style="fill:#0000ff;fill-opacity:1;stroke:#000000;stroke-width:0.59392577;stroke-miterlimit:4;stroke-dasharray:none;stroke-dashoffset:0;stroke-opacity:0"
               d="m 58.410531,514.94622 c -0.230712,-0.60123 -0.308799,-1.40253 -0.173527,-1.78066 0.135273,-0.37814 7.478093,-5.49072 16.317379,-11.3613 C 134.86,461.75254 183.48855,422.45373 231.17245,375.23452 c 19.68496,-19.49313 20.55678,-20.25571 20.54113,-17.9672 -0.0148,2.16075 -1.61059,3.97602 -16.64021,18.92857 -47.20302,46.96098 -96.10168,86.54308 -157.593176,127.5673 -20.282293,13.53138 -18.556807,12.5195 -19.069663,11.18303 z"
               id="path4651"
               inkscape:connector-curvature="0"
               transform="matrix(7.4999995,0,0,-7.4999995,-2.474645e-7,4630.002)" />
            <path
               style="fill:#0000ff;fill-opacity:1;stroke:#000000;stroke-width:0.59392577;stroke-miterlimit:4;stroke-dasharray:none;stroke-dashoffset:0;stroke-opacity:0"
               d="m 255.98295,352.48984 c 0,-2.00056 1.38322,-3.89947 9.35102,-12.8373 5.14306,-5.7692 15.02699,-17.45892 21.96429,-25.97717 6.9373,-8.51824 12.7929,-15.50932 13.01246,-15.53571 0.21956,-0.0264 0.92982,0.35379 1.57837,0.84486 1.27016,0.96174 1.74302,0.33133 -19.42146,25.89286 -6.42134,7.75541 -19.95598,23.12758 -25.13863,28.55159 -1.33125,1.39324 -1.34605,1.38292 -1.34605,-0.93913 z"
               id="path4653"
               inkscape:connector-curvature="0"
               transform="matrix(7.4999995,0,0,-7.4999995,-2.474645e-7,4630.002)" />
            <path
               style="fill:#0000ff;fill-opacity:1;stroke:#000000;stroke-width:0.59392577;stroke-miterlimit:4;stroke-dasharray:none;stroke-dashoffset:0;stroke-opacity:0"
               d="m 293.48296,204.73098 c -29.58846,-13.03284 -36.50958,-16.1409 -37.02477,-16.62668 -0.3279,-0.30919 -0.48861,-1.23689 -0.35714,-2.06157 0.22423,-1.40647 0.90322,-1.19911 10.95333,3.34501 5.89286,2.66444 16.24473,7.20692 23.00416,10.0944 11.06653,4.72737 12.21941,5.38161 11.58201,6.5726 -0.92475,1.72791 -1.40709,1.64964 -8.15759,-1.32376 z"
               id="path4655"
               inkscape:connector-curvature="0"
               transform="matrix(7.4999995,0,0,-7.4999995,-2.474645e-7,4630.002)" />
            <path
               style="fill:#0000ff;fill-opacity:1;stroke:#000000;stroke-width:0.10499223;stroke-miterlimit:4;stroke-dasharray:none;stroke-dashoffset:0;stroke-opacity:0"
               d="m 238.04986,368.24103 c 0,-0.0593 0.48864,-0.58945 1.08587,-1.17822 0.59722,-0.58878 3.05119,-3.11606 5.45325,-5.61619 2.40206,-2.50013 5.01016,-5.20856 5.79579,-6.01874 l 1.42842,-1.47305 -0.008,1.47305 c -0.005,1.01046 -0.0439,1.38383 -0.1222,1.18895 -0.38067,-0.94707 -1.87537,0.26622 -9.56094,7.7609 -2.2397,2.18407 -4.07218,3.92255 -4.07218,3.8633 z"
               id="path4657"
               inkscape:connector-curvature="0"
               transform="matrix(7.4999995,0,0,-7.4999995,-2.474645e-7,4630.002)" />
            <path
               style="fill:#0000ff;fill-opacity:1;stroke:#000000;stroke-width:0.10499223;stroke-miterlimit:4;stroke-dasharray:none;stroke-dashoffset:0;stroke-opacity:0"
               d="m 251.86733,356.6484 c 9e-5,-1.59731 0.0182,-2.23334 0.0402,-1.41341 0.022,0.81993 0.022,2.12682 -1.6e-4,2.90419 -0.0221,0.77737 -0.0401,0.10652 -0.04,-1.49078 z"
               id="path4659"
               inkscape:connector-curvature="0"
               transform="matrix(7.4999995,0,0,-7.4999995,-2.474645e-7,4630.002)" />
            <path
               style="fill:#0000ff;fill-opacity:1;stroke:#000000;stroke-width:0.10499223;stroke-miterlimit:4;stroke-dasharray:none;stroke-dashoffset:0;stroke-opacity:0"
               d=""
               id="path4661"
               inkscape:connector-curvature="0"
               transform="matrix(7.4999995,0,0,-7.4999995,-2.474645e-7,4630.002)" />
            <path
               style="fill:#0000ff;fill-opacity:1;stroke:#000000;stroke-width:0.10499223;stroke-miterlimit:4;stroke-dasharray:none;stroke-dashoffset:0;stroke-opacity:0"
               d="m 255.98306,350.55515 -0.003,-1.04248 3.50433,-3.81888 c 1.92739,-2.10038 4.66901,-5.12426 6.09249,-6.71973 2.98718,-3.3481 3.57064,-3.97418 3.51342,-3.77001 -0.0228,0.0812 -1.82995,2.17534 -4.01596,4.6536 -6.3887,7.24283 -8.14404,9.44487 -8.80016,11.03964 l -0.28813,0.70034 z"
               id="path4663"
               inkscape:connector-curvature="0"
               transform="matrix(7.4999995,0,0,-7.4999995,-2.474645e-7,4630.002)" />
            <path
               style="fill:#0000ff;fill-opacity:1;stroke:#000000;stroke-width:0.07424072;stroke-miterlimit:4;stroke-dasharray:none;stroke-dashoffset:0;stroke-opacity:0"
               d="m 300.4053,207.87321 c -0.34375,-0.14869 -5.46652,-2.34128 -11.38393,-4.87241 -5.91741,-2.53114 -11.90401,-5.1229 -13.30357,-5.75947 -1.39955,-0.63657 -3.91071,-1.75093 -5.58035,-2.47636 -1.66965,-0.72544 -5.52032,-2.4488 -8.55705,-3.8297 -3.03673,-1.38091 -5.55794,-2.51074 -5.60268,-2.51074 -0.0467,0 -0.0814,-0.91318 -0.0814,-2.14285 0,-1.17857 0.0324,-2.14286 0.0721,-2.14286 0.0929,0 4.31856,1.89012 9.48149,4.24101 2.23437,1.0174 5.08705,2.2915 6.33928,2.83133 1.25223,0.53984 3.3817,1.4838 4.73214,2.0977 3.03924,1.38161 5.33227,2.37377 16.87732,7.30261 5.03221,2.14836 9.16535,3.92048 9.18477,3.93804 0.0453,0.041 -1.44909,3.60701 -1.50851,3.59962 -0.0246,-0.003 -0.3259,-0.12722 -0.66965,-0.27592 z m 0.40519,-0.81028 c 0.48325,-0.24369 0.97874,-0.99713 0.97874,-1.48828 0,-0.26333 -0.0772,-0.3862 -0.4857,-0.77244 -0.86339,-0.81645 -2.74753,-1.70917 -12.19287,-5.77704 -8.87365,-3.82166 -12.47916,-5.40803 -25.26786,-11.11751 -4.78566,-2.13654 -6.52557,-2.77672 -7.2096,-2.65269 -0.42408,0.0769 -0.58898,0.44942 -0.59281,1.33921 -0.004,0.87614 0.13853,1.31794 0.51764,1.6071 0.68143,0.51975 6.99164,3.36627 28.44549,12.83167 12.77731,5.63733 13.2238,5.82553 14.43905,6.08634 0.8259,0.17725 0.91165,0.17372 1.36792,-0.0564 z"
               id="path4665"
               inkscape:connector-curvature="0"
               transform="matrix(7.4999995,0,0,-7.4999995,-2.474645e-7,4630.002)" />
            <path
               style="fill:#0000ff;fill-opacity:1;stroke:#000000;stroke-width:0.07424072;stroke-miterlimit:4;stroke-dasharray:none;stroke-dashoffset:0;stroke-opacity:0"
               d="m 249.95887,185.70768 c -0.98214,-0.45379 -2.9308,-1.37051 -4.33035,-2.03717 -1.39956,-0.66666 -3.68974,-1.73324 -5.08929,-2.37019 -1.39955,-0.63695 -4.79458,-2.23199 -7.54451,-3.54452 -2.74993,-1.31254 -6.14502,-2.91947 -7.54464,-3.57096 -1.39963,-0.65149 -3.97112,-1.87664 -5.71442,-2.72256 -4.83175,-2.34455 -37.6217,-18.72701 -45.42933,-22.69732 -6.34784,-3.22799 -6.87366,-3.51226 -6.54306,-3.53738 0.31888,-0.0242 0.8164,0.20908 4.40255,2.06452 17.19297,8.89551 35.18418,17.84869 55.42698,27.5828 11.67298,5.61316 22.21802,10.57017 23.33412,10.9689 0.31556,0.11274 0.35319,0.10869 0.46958,-0.0505 0.21005,-0.28727 0.30247,-0.76611 0.30207,-1.56521 -8e-4,-1.58102 -0.49237,-2.07971 -3.16827,-3.21404 -5.31793,-2.25429 -18.11091,-8.34825 -35,-16.67231 -8.23061,-4.05659 -11.02055,-5.45959 -10.86942,-5.46601 0.062,-0.003 0.70486,0.29164 1.42857,0.65394 0.72372,0.3623 2.56139,1.25136 4.08371,1.97569 1.52232,0.72433 3.91646,1.89129 5.32031,2.59324 2.68496,1.34253 10.41463,5.04606 14.94755,7.16183 1.47321,0.68764 4.54687,2.1443 6.83035,3.23703 2.28349,1.09273 5.57813,2.63983 7.32143,3.438 1.74331,0.79817 4.43527,2.05026 5.98215,2.78243 1.54687,0.73218 2.92299,1.37867 3.05803,1.43665 l 0.24554,0.10543 v 2.14477 c 0,1.17963 -0.0301,2.14099 -0.067,2.13637 -0.0368,-0.005 -0.87053,-0.37967 -1.85268,-0.83345 z"
               id="path4667"
               inkscape:connector-curvature="0"
               transform="matrix(7.4999995,0,0,-7.4999995,-2.474645e-7,4630.002)" />
            <path
               style="fill:#0000ff;fill-opacity:1;stroke:#000000;stroke-width:0.02624806;stroke-miterlimit:4;stroke-dasharray:none;stroke-dashoffset:0;stroke-opacity:0"
               d="m 58.221486,515.70521 -0.544535,-0.82862 v -1.18922 -1.18921 l 0.26043,-0.16811 c 0.143236,-0.0925 0.999104,-0.65507 1.901927,-1.25024 0.902824,-0.59518 2.713996,-1.76442 4.024827,-2.59833 3.076892,-1.95742 6.755949,-4.38157 9.754286,-6.42714 1.31083,-0.89429 3.462929,-2.338 4.782441,-3.20824 3.770925,-2.48698 7.685943,-5.10476 10.227794,-6.83882 2.983448,-2.03532 16.090984,-11.2689 19.046384,-13.41717 l 2.25258,-1.63741 0.30992,0.009 0.30991,0.009 -1.34716,0.9621 c -11.21741,8.01102 -21.108233,14.82759 -33.529997,23.10823 -9.233677,6.15539 -15.130189,10.215 -16.953035,11.67177 -0.541507,0.43275 -0.552264,0.45214 -0.547486,0.98642 0.0041,0.45603 0.04467,0.67021 0.256446,1.35304 0.174081,0.56131 0.225304,0.6357 0.437707,0.6357 0.47215,0 1.618659,-0.64665 4.692421,-2.64658 2.803448,-1.82406 16.029836,-10.65168 21.189536,-14.14243 10.42063,-7.04999 20.435848,-14.03331 29.901708,-20.8496 l 1.52274,-1.09651 0.35143,0.009 0.35142,0.009 -2.06222,1.42053 c -1.13422,0.78129 -3.15672,2.21647 -4.49445,3.18929 -3.17009,2.30533 -16.563653,11.73971 -19.746467,13.90934 -2.699365,1.84008 -6.072166,4.09447 -9.770069,6.53035 -1.30215,0.85775 -3.461351,2.30532 -4.798225,3.21682 -3.123269,2.12949 -6.788448,4.54604 -9.818101,6.47333 -1.319137,0.83916 -3.513545,2.25969 -4.876462,3.15673 -1.362916,0.89704 -2.492235,1.63905 -2.509597,1.6489 -0.01736,0.01 -0.276609,-0.35496 -0.576103,-0.81069 z"
               id="path4669"
               inkscape:connector-curvature="0"
               transform="matrix(7.4999995,0,0,-7.4999995,-2.474645e-7,4630.002)" />
            <path
               style="fill:#0000ff;fill-opacity:1;stroke:#000000;stroke-width:0.07424072;stroke-miterlimit:4;stroke-dasharray:none;stroke-dashoffset:0;stroke-opacity:0"
               d="m 110.25005,476.75637 c 0.11711,-0.0895 1.38786,-0.97264 2.82388,-1.96257 1.43603,-0.98994 3.7262,-2.63711 5.08929,-3.66038 1.36308,-1.02328 3.60333,-2.6786 4.97833,-3.67849 3.58392,-2.60621 5.77166,-4.25795 11.47322,-8.66228 2.77455,-2.14329 6.29018,-4.8401 7.8125,-5.99291 2.87592,-2.17788 15.5373,-12.22226 19.50893,-15.47662 1.25223,-1.02608 3.50223,-2.89415 5,-4.15127 1.49777,-1.25712 3.74777,-3.12731 5,-4.15598 3.51767,-2.88966 6.94759,-5.79336 11.94908,-10.11582 2.52066,-2.17844 4.60275,-3.94106 4.62688,-3.91693 0.0495,0.0495 -3.98412,3.59327 -8.71882,7.65984 -21.24498,18.24704 -42.43977,34.9226 -66.41437,52.25327 -2.18801,1.58166 -2.85758,2.02283 -3.07008,2.02283 h -0.27178 z"
               id="path4671"
               inkscape:connector-curvature="0"
               transform="matrix(7.4999995,0,0,-7.4999995,-2.474645e-7,4630.002)" />
            <path
               style="fill:#0000ff;fill-opacity:1;stroke:#000000;stroke-width:0.07424072;stroke-miterlimit:4;stroke-dasharray:none;stroke-dashoffset:0;stroke-opacity:0"
               d=""
               id="path4673"
               inkscape:connector-curvature="0"
               transform="matrix(7.4999995,0,0,-7.4999995,-2.474645e-7,4630.002)" />
            <path
               style="fill:#0000ff;fill-opacity:1;stroke:#000000;stroke-width:0.01856018;stroke-miterlimit:4;stroke-dasharray:none;stroke-dashoffset:0;stroke-opacity:0"
               d="m 118.68705,118.83314 c -1.79855,-1.02245 -4.375,-2.49758 -5.72545,-3.27807 -1.35045,-0.78049 -3.56027,-2.0469 -4.91071,-2.81425 -3.36512,-1.91212 -11.225305,-6.55679 -14.609379,-8.63283 -1.356585,-0.83223 -3.541294,-2.14808 -4.854911,-2.92411 -3.901754,-2.304988 -7.093317,-4.229234 -11.561194,-6.970436 -6.064623,-3.720862 -5.235754,-3.201559 -13.670702,-8.564972 l -5.669382,-3.604911 -0.0014,-1.192372 -0.0014,-1.192371 0.529965,-0.831271 c 0.291481,-0.457199 0.540086,-0.825349 0.552456,-0.818111 0.01237,0.0072 3.297044,2.097037 7.299276,4.643997 7.000104,4.454761 7.457987,4.742047 12.042411,7.555686 5.063314,3.107552 8.269618,5.043228 12.410714,7.492467 1.405692,0.831392 3.638118,2.175883 4.960947,2.987754 3.297703,2.02394 11.316819,6.76213 14.626109,8.64201 1.32589,0.75319 3.56082,2.03389 4.96652,2.84599 1.40569,0.81211 3.53515,2.03236 4.73214,2.71166 1.19699,0.67931 2.17941,1.23747 2.18317,1.24036 0.004,0.003 0.004,0.0545 0,0.11465 l -0.007,0.10941 -1.01563,-0.57794 C 107.99972,108.39829 97.048313,102.00977 86.376779,95.599061 78.362461,90.784621 72.131032,86.93075 66.209368,83.126385 c -3.309507,-2.126188 -5.501134,-3.446695 -6.74553,-4.064341 -0.639805,-0.317561 -0.717844,-0.32817 -0.920714,-0.125161 -0.287233,0.287429 -0.426253,0.836462 -0.407956,1.611142 0.01116,0.472598 0.04112,0.614222 0.184121,0.870536 0.555814,0.996213 2.739776,2.496671 11.160169,7.667432 2.531973,1.554824 12.125819,7.402002 14.832589,9.040045 12.261437,7.420192 24.688683,14.701402 36.098533,21.150372 l 1.57844,0.89215 8.1e-4,0.26228 c 4.4e-4,0.14425 -0.007,0.26206 -0.016,0.26179 -0.009,-2.7e-4 -1.48828,-0.83704 -3.28683,-1.85949 z"
               id="path4677"
               inkscape:connector-curvature="0"
               transform="matrix(7.4999995,0,0,-7.4999995,-2.474645e-7,4630.002)" />
          </g>
          <g
             clip-path="url(#clipPath252)"
             id="g248"
             transform="matrix(0.95750577,0,0,0.95750577,77.317351,6.280207)">
            <g
               transform="matrix(10.523583,0,0,10.523583,1.8587983,-97.940165)"
               id="g254">
              <text
                 id="text258"
                 style="font-variant:normal;font-weight:normal;font-size:10px;font-family:Helvetica;-inkscape-font-specification:Helvetica;writing-mode:lr-tb;fill:#000000;fill-opacity:1;fill-rule:nonzero;stroke:none"
                 transform="matrix(1,0,0,-1,157.25,27.6668)">
                <tspan
                   id="tspan256"
                   sodipodi:role="line"
                   x="0"
                   y="0"
                   style="font-style:normal;font-variant:normal;font-weight:normal;font-stretch:normal;font-size:19.99999809px;font-family:'Times New Roman';-inkscape-font-specification:'Times New Roman, '">|ν|</tspan>
              </text>
              <text
                 id="text262"
                 style="font-variant:normal;font-weight:normal;font-size:10px;font-family:Helvetica;-inkscape-font-specification:Helvetica;writing-mode:lr-tb;fill:#000000;fill-opacity:1;fill-rule:nonzero;stroke:none"
                 transform="matrix(0,1,1,0,13.8332,231)">
                <tspan
                   id="tspan260"
                   sodipodi:role="line"
                   style="font-style:normal;font-variant:normal;font-weight:normal;font-stretch:normal;font-size:19.0049324px;font-family:'Times New Roman';-inkscape-font-specification:'Times New Roman, '"
                   x="0"
                   y="0">Re(l)</tspan>
              </text>
              <flowRoot
                 xml:space="preserve"
                 id="flowRoot525"
                 style="font-style:normal;font-weight:normal;font-size:40px;line-height:125%;font-family:Sans;letter-spacing:0px;word-spacing:0px;writing-mode:tb-rl;fill:#000000;fill-opacity:1;stroke:none;stroke-width:1px;stroke-linecap:butt;stroke-linejoin:miter;stroke-opacity:1"><flowRegion
                   id="flowRegion527"><rect
                     id="rect529"
                     width="167.14285"
                     height="210.71428"
                     x="-168.57143"
                     y="273.23398" /></flowRegion><flowPara
                   id="flowPara531" /></flowRoot>            </g>
          </g>
        </g>
        <path
           transform="matrix(7.4999995,0,0,-7.4999995,-204.28575,5552.3499)"
           inkscape:connector-curvature="0"
           id="path3160"
           d="M 258.30047,425.17985 V 394.8227 h 2.5 c 1.375,0 2.5,-0.32143 2.5,-0.71428 0,-0.39286 -1.125,-0.71429 -2.5,-0.71429 h -2.5 v -30.71428 -30.71429 h 2.5 c 1.375,0 2.5,-0.32143 2.5,-0.71429 0,-0.39285 -1.125,-0.71428 -2.5,-0.71428 h -2.5 V 299.8227 269.10842 h 2.5 c 1.375,0 2.5,-0.32143 2.5,-0.71429 0,-0.39286 -1.125,-0.71428 -2.5,-0.71428 h -2.5 v -12.5 c 0,-6.875 0.13542,-12.5 0.30092,-12.5 0.16551,0 8.92444,5.51558 19.46429,12.25685 10.53985,6.74128 24.30622,15.5298 30.59194,19.53007 6.28571,4.00026 20.10714,12.8363 30.71428,19.63563 10.60714,6.79934 26.67857,17.08679 35.71429,22.861 9.03571,5.7742 23.33928,14.91918 31.78571,20.32217 8.44643,5.403 22.01857,14.05023 30.16031,19.21609 l 14.80316,9.39247 0.0183,44.82143 0.0183,44.82143 h -96.78571 -96.78572 z"
           style="fill:#0084c6;fill-opacity:0.19607843;stroke:none;stroke-width:0.4751406;stroke-miterlimit:10;stroke-dasharray:none;stroke-dashoffset:0;stroke-opacity:1" />
        <path
           transform="matrix(7.4999995,0,0,-7.4999995,-204.28575,5552.3499)"
           inkscape:connector-curvature="0"
           id="path3162"
           d="m 258.30047,658.07749 v -12.5405 h 2.54216 c 1.51288,0 2.36342,-0.2892 2.1007,-0.71429 -0.2428,-0.39285 -1.38677,-0.71428 -2.54215,-0.71428 h -2.10071 v -30.67117 -30.67117 l 2.67857,-0.28018 2.67858,-0.28019 -2.67858,-0.12008 -2.67857,-0.12007 v -30.71429 -30.71428 h 2.10071 c 1.15538,0 2.29935,-0.32143 2.54215,-0.71429 0.26272,-0.42508 -0.58782,-0.71428 -2.1007,-0.71428 h -2.54216 v -30.71429 -30.71428 h 96.7941 96.79411 l -0.18696,27.64638 -0.18696,27.64639 -11.83744,9.67504 c -6.51059,5.32127 -24.83202,20.27692 -40.71428,33.23478 -29.38926,23.97778 -72.16653,58.93318 -114.55969,93.61229 -12.94699,10.5911 -24.11663,19.67656 -24.82143,20.1899 -1.21919,0.88802 -1.28145,0.32409 -1.28145,-11.60714 z"
           style="fill:#0084c6;fill-opacity:0.19607843;stroke:none;stroke-width:0.4751406;stroke-miterlimit:10;stroke-dasharray:none;stroke-dashoffset:0;stroke-opacity:1" />
        <text
           transform="scale(1,-1)"
           id="text3178"
           y="-3726.1873"
           x="3222.0269"
           style="font-style:normal;font-weight:normal;font-size:299.99996948px;line-height:125%;font-family:Sans;letter-spacing:0px;word-spacing:0px;writing-mode:lr-tb;fill:#000000;fill-opacity:1;stroke:none;stroke-width:7.49999952px;stroke-linecap:butt;stroke-linejoin:miter;stroke-opacity:1"
           xml:space="preserve"><tspan
             style="font-style:normal;font-variant:normal;font-weight:normal;font-stretch:normal;font-size:199.99998474px;font-family:'Times New Roman';-inkscape-font-specification:'Times New Roman, ';writing-mode:lr-tb;stroke-width:7.49999952px"
             y="-3726.1873"
             x="3222.0269"
             id="tspan3176"
             sodipodi:role="line">C</tspan></text>
        <text
           transform="scale(1,-1)"
           id="text3182"
           y="-3727.0239"
           x="3358.2139"
           style="font-style:normal;font-weight:normal;font-size:299.99996948px;line-height:125%;font-family:Sans;letter-spacing:0px;word-spacing:0px;writing-mode:lr-tb;fill:#000000;fill-opacity:1;stroke:none;stroke-width:7.49999952px;stroke-linecap:butt;stroke-linejoin:miter;stroke-opacity:1"
           xml:space="preserve"><tspan
             style="font-style:normal;font-variant:normal;font-weight:normal;font-stretch:normal;font-size:99.99999237px;font-family:'Times New Roman';-inkscape-font-specification:'Times New Roman, ';writing-mode:lr-tb;stroke-width:7.49999952px"
             y="-3727.0239"
             x="3358.2139"
             id="tspan3180"
             sodipodi:role="line">k</tspan></text>
        <text
           transform="scale(1,-1)"
           id="text3186"
           y="-738.80988"
           x="2281.4282"
           style="font-style:normal;font-weight:normal;font-size:299.99996948px;line-height:125%;font-family:Sans;letter-spacing:0px;word-spacing:0px;writing-mode:lr-tb;fill:#000000;fill-opacity:1;stroke:none;stroke-width:7.49999952px;stroke-linecap:butt;stroke-linejoin:miter;stroke-opacity:1"
           xml:space="preserve"><tspan
             style="font-style:normal;font-variant:normal;font-weight:normal;font-stretch:normal;font-size:199.99998474px;font-family:'Times New Roman';-inkscape-font-specification:'Times New Roman, ';writing-mode:lr-tb;stroke-width:7.49999952px"
             y="-738.80988"
             x="2281.4282"
             id="tspan3184"
             sodipodi:role="line">C</tspan></text>
        <text
           transform="scale(1,-1)"
           id="text3186-8"
           y="-3329.7415"
           x="2536.0112"
           style="font-style:normal;font-weight:normal;font-size:299.99993896px;line-height:125%;font-family:Sans;letter-spacing:0px;word-spacing:0px;writing-mode:lr-tb;fill:#000000;fill-opacity:1;stroke:none;stroke-width:7.49999952px;stroke-linecap:butt;stroke-linejoin:miter;stroke-opacity:1"
           xml:space="preserve"><tspan
             style="font-style:normal;font-variant:normal;font-weight:normal;font-stretch:normal;font-size:199.99998474px;font-family:'Times New Roman';-inkscape-font-specification:'Times New Roman, ';writing-mode:lr-tb;stroke-width:7.49999952px"
             y="-3329.7415"
             x="2536.0112"
             id="tspan3184-9"
             sodipodi:role="line">C</tspan></text>
        <text
           transform="scale(1,-1)"
           id="text3182-5"
           y="-3328.0215"
           x="2683.2205"
           style="font-style:normal;font-weight:normal;font-size:299.99993896px;line-height:125%;font-family:Sans;letter-spacing:0px;word-spacing:0px;writing-mode:lr-tb;fill:#000000;fill-opacity:1;stroke:none;stroke-width:7.49999952px;stroke-linecap:butt;stroke-linejoin:miter;stroke-opacity:1"
           xml:space="preserve"><tspan
             style="font-style:normal;font-variant:normal;font-weight:normal;font-stretch:normal;font-size:99.99999237px;font-family:'Times New Roman';-inkscape-font-specification:'Times New Roman, ';writing-mode:lr-tb;stroke-width:7.49999952px"
             y="-3328.0215"
             x="2683.2205"
             id="tspan3180-6"
             sodipodi:role="line">a</tspan></text>
        <text
           transform="scale(1,-1)"
           id="text3182-5-9"
           y="-732.32257"
           x="2422.5515"
           style="font-style:normal;font-weight:normal;font-size:299.99993896px;line-height:125%;font-family:Sans;letter-spacing:0px;word-spacing:0px;writing-mode:lr-tb;fill:#000000;fill-opacity:1;stroke:none;stroke-width:7.49999952px;stroke-linecap:butt;stroke-linejoin:miter;stroke-opacity:1"
           xml:space="preserve"><tspan
             style="font-style:normal;font-variant:normal;font-weight:normal;font-stretch:normal;font-size:99.99999237px;font-family:'Times New Roman';-inkscape-font-specification:'Times New Roman, ';writing-mode:lr-tb;stroke-width:7.49999952px"
             y="-732.32257"
             x="2422.5515"
             id="tspan3180-6-2"
             sodipodi:role="line">b</tspan></text>
        <path
           style="fill:#cde6f3;fill-opacity:1;stroke:#000000;stroke-width:0.83993787;stroke-miterlimit:4;stroke-dasharray:none;stroke-dashoffset:0;stroke-opacity:0"
           d="m 66.526017,504.80632 c 5.048328,-4.72465 179.037773,-146.15783 179.380293,-145.81531 0.62038,0.62038 -34.44522,34.70908 -49.64804,48.2649 -36.49686,32.54295 -74.76088,62.15475 -115.859221,89.66127 -12.914551,8.64352 -17.411655,11.20087 -13.873032,7.88914 z"
           id="path4630"
           inkscape:connector-curvature="0"
           transform="matrix(7.4999995,0,0,-7.4999995,1296.4285,4356.7878)" />
        <path
           style="fill:#cde6f3;fill-opacity:1;stroke:#000000;stroke-width:0.83993787;stroke-miterlimit:4;stroke-dasharray:none;stroke-dashoffset:0;stroke-opacity:0"
           d="m 242.76156,200.72602 c -4.44467,-2.9111 -35.71404,-22.93492 -69.48749,-44.49737 -33.77344,-21.56246 -61.18953,-39.42121 -60.92462,-39.68611 0.2649,-0.2649 6.53299,2.91473 13.92909,7.06584 30.48285,17.10872 77.25167,41.00377 111.6848,57.0618 l 13.38452,6.24193 v 9.63161 c 0,5.29738 -0.11365,9.59641 -0.25254,9.5534 -0.1389,-0.043 -3.88909,-2.46 -8.33376,-5.3711 z"
           id="path4632"
           inkscape:connector-curvature="0"
           transform="matrix(7.4999995,0,0,-7.4999995,1296.4285,4356.7878)" />
        <path
           style="fill:#cde6f3;fill-opacity:1;stroke:#000000;stroke-width:0.83993787;stroke-miterlimit:4;stroke-dasharray:none;stroke-dashoffset:0;stroke-opacity:0"
           d="m 58.40872,265.77432 c 0,-29.63113 0.04489,-30.30457 2.020305,-30.30457 1.111168,0 2.020305,-0.45457 2.020305,-1.01015 0,-0.55559 -0.909137,-1.01016 -2.020305,-1.01016 -1.97541,0 -2.020305,-0.67344 -2.020305,-30.30457 0,-29.324 0.06344,-30.30458 1.960689,-30.30458 1.078379,0 2.241627,-0.45457 2.584997,-1.01015 0.354082,-0.57292 -0.494586,-1.01015 -1.960689,-1.01015 H 58.40872 v -30.30458 c 0,-29.324 0.06344,-30.30458 1.960689,-30.30458 1.078379,0 2.241627,-0.45457 2.584997,-1.01015 0.354082,-0.57292 -0.494586,-1.01015 -1.960689,-1.01015 H 58.40872 V 96.068697 c 0,-6.667007 0.193916,-12.121831 0.430925,-12.121831 0.639411,0 13.613525,8.100505 37.449795,23.382124 11.66726,7.47996 22.57691,14.42429 24.24366,15.43183 l 3.03046,1.8319 -2.52538,-2.11772 c -4.29446,-3.60122 -1.13979,-2.41035 10.00727,3.7777 28.04796,15.57021 84.99394,44.43781 112.44755,57.00297 l 7.80251,3.57111 0.0345,54.62606 0.0344,54.62606 h -96.47789 -96.4779 z m 52.52793,-39.39594 c 0,-0.55559 -0.45457,-1.01016 -1.01015,-1.01016 -0.55558,0 -0.99659,-1.47735 -0.98001,-3.28299 l 0.0301,-3.283 3.75793,4.30879 c 3.50168,4.01498 8.30362,5.90447 8.30362,3.26736 0,-0.55559 -0.59637,-1.01016 -1.32526,-1.01016 -0.7289,0 -2.35905,-1.39827 -3.62258,-3.10728 -2.10999,-2.85392 -2.16666,-3.25164 -0.69504,-4.87776 1.93036,-2.13302 2.08251,-5.51115 0.31432,-6.97861 -1.97297,-1.63744 -11.45218,-2.65006 -12.27929,-1.31175 -0.38177,0.61772 -0.21273,1.12311 0.37564,1.12311 1.52306,0 1.39436,14.42364 -0.14242,15.96041 -0.9428,0.94281 -0.26937,1.21219 3.03046,1.21219 2.33345,0 4.24264,-0.45457 4.24264,-1.01015 z m 14.96375,-3.05591 c -0.42908,-4.14237 -2.11914,-4.31366 -2.23986,-0.22702 -0.0616,2.08675 0.38645,3.28305 1.22971,3.283 0.87287,-4e-5 1.21841,-1.04541 1.01015,-3.05598 z m 0.18854,-5.47077 c 0,-0.245 -0.45457,-0.7264 -1.01015,-1.06977 -0.55559,-0.34337 -1.01015,-0.14292 -1.01015,0.44545 0,0.58838 0.45456,1.06977 1.01015,1.06977 0.55558,0 1.01015,-0.20045 1.01015,-0.44545 z"
           id="path4634"
           inkscape:connector-curvature="0"
           transform="matrix(7.4999995,0,0,-7.4999995,1296.4285,4356.7878)" />
        <path
           style="fill:#cde6f3;fill-opacity:1;stroke:#000000;stroke-width:0.83993787;stroke-miterlimit:4;stroke-dasharray:none;stroke-dashoffset:0;stroke-opacity:0"
           d="m 58.40872,265.77432 c 0,-29.63113 0.04489,-30.30457 2.020305,-30.30457 1.111168,0 2.020305,-0.45457 2.020305,-1.01015 0,-0.55559 -0.909137,-1.01016 -2.020305,-1.01016 -1.97541,0 -2.020305,-0.67344 -2.020305,-30.30457 0,-29.63114 0.04489,-30.30458 2.020305,-30.30458 1.111168,0 2.020305,-0.45457 2.020305,-1.01015 0,-0.55559 -0.909137,-1.01015 -2.020305,-1.01015 -1.97541,0 -2.020305,-0.67344 -2.020305,-30.30458 0,-29.63114 0.04489,-30.30458 2.020305,-30.30458 1.111168,0 2.020305,-0.45457 2.020305,-1.01015 0,-0.55558 -0.909137,-1.01015 -2.020305,-1.01015 -1.909058,0 -2.020305,-0.67344 -2.020305,-12.229909 0,-10.346815 0.228711,-12.14214 1.485387,-11.659908 0.816964,0.313498 13.754135,8.400094 28.749268,17.970217 14.995135,9.57011 28.143415,17.46501 29.218395,17.5442 1.07498,0.0792 8.25247,3.58779 15.94998,7.79688 35.21617,19.25661 113.33986,58.36026 116.59573,58.36026 0.5689,0 0.94038,21.74763 0.94038,55.05332 V 296.0789 H 154.87829 58.40872 Z m 51.71981,-39.59798 c -0.6667,-0.6667 -1.21218,-2.59841 -1.21218,-4.2927 v -3.08051 l 3.92391,4.29269 c 3.61217,3.95166 8.19792,5.78785 8.19792,3.28256 0,-0.55559 -0.59637,-1.01016 -1.32526,-1.01016 -0.7289,0 -2.35905,-1.39827 -3.62258,-3.10728 -2.10999,-2.85392 -2.16666,-3.25164 -0.69504,-4.87776 1.91938,-2.12089 2.08696,-5.52805 0.33958,-6.90401 -1.8617,-1.46596 -10.16455,-2.33034 -11.89193,-1.23802 -1.00619,0.63627 -1.08111,0.94888 -0.2299,0.95932 1.70143,0.0208 1.74651,14.27987 0.0505,15.97587 -0.9428,0.94281 -0.22447,1.21219 3.23249,1.21219 3.45697,0 4.1753,-0.26938 3.23249,-1.21219 z m 15.96041,-2.26373 c 0,-1.35617 -0.45457,-2.7467 -1.01015,-3.09007 -0.58935,-0.36424 -1.01015,0.66294 -1.01015,2.46576 0,1.69954 0.45456,3.09008 1.01015,3.09008 0.55558,0 1.01015,-1.1096 1.01015,-2.46577 z m 0,-6.06091 c 0,-0.245 -0.45457,-0.7264 -1.01015,-1.06977 -0.55559,-0.34337 -1.01015,-0.14292 -1.01015,0.44545 0,0.58838 0.45456,1.06977 1.01015,1.06977 0.55558,0 1.01015,-0.20045 1.01015,-0.44545 z"
           id="path4636"
           inkscape:connector-curvature="0"
           transform="matrix(7.4999995,0,0,-7.4999995,1296.4285,4356.7878)" />
        <path
           style="stroke-width:0.83149606;stroke-miterlimit:4;stroke-dasharray:none;fill:#cde6f3;fill-opacity:1;stroke:#000000;stroke-opacity:0;stroke-dashoffset:0"
           d="m 58.40872,265.77432 c 0,-29.63113 0.04489,-30.30457 2.020305,-30.30457 1.111168,0 2.020305,-0.45457 2.020305,-1.01015 0,-0.55559 -0.909137,-1.01016 -2.020305,-1.01016 -1.97541,0 -2.020305,-0.67344 -2.020305,-30.30457 0,-29.63114 0.04489,-30.30458 2.020305,-30.30458 1.111168,0 2.020305,-0.45457 2.020305,-1.01015 0,-0.55559 -0.909137,-1.01015 -2.020305,-1.01015 -1.975234,0 -2.020305,-0.67344 -2.020305,-30.18677 v -30.18676 l 2.272843,-0.75113 2.272843,-0.75113 -2.272843,-0.44709 c -2.205034,-0.43376 -2.272843,-0.80665 -2.272843,-12.49867 0,-6.628366 0.287272,-12.051574 0.638382,-12.051574 0.862606,0 4.566104,2.269238 28.184364,17.269354 11.130048,7.06877 27.267234,16.46185 35.860414,20.8735 8.59318,4.41165 21.71084,11.30193 29.15034,15.31172 15.7794,8.50489 74.93606,38.06283 89.2405,44.5895 l 9.83283,4.48641 0.0162,54.80078 0.0162,54.80077 H 154.87829 58.40872 Z m 51.71981,-39.59798 c -0.6667,-0.6667 -1.21218,-2.59394 -1.21218,-4.28276 v -3.07057 l 4.15686,4.28275 c 2.28627,2.35553 5.02884,4.28277 6.09459,4.28277 1.60237,0 1.32002,-0.61771 -1.63148,-3.5692 -3.99341,-3.99341 -4.22515,-4.73042 -2.05398,-6.53233 1.82012,-1.51057 1.98244,-5.18965 0.30304,-6.86903 -0.67973,-0.67974 -3.8966,-1.20539 -7.3236,-1.19672 -3.81997,0.0101 -5.59578,0.34217 -4.73617,0.8868 1.02955,0.6523 1.28159,2.93373 1.00266,9.0759 l -0.37259,8.20458 h 3.49252 c 2.7164,0 3.22314,-0.26938 2.28033,-1.21219 z m 15.96041,-2.26373 c 0,-1.35617 -0.45457,-2.7467 -1.01015,-3.09007 -0.58935,-0.36424 -1.01015,0.66294 -1.01015,2.46576 0,1.69954 0.45456,3.09008 1.01015,3.09008 0.55558,0 1.01015,-1.1096 1.01015,-2.46577 z m 0,-6.06091 c 0,-0.245 -0.45457,-0.7264 -1.01015,-1.06977 -0.55559,-0.34337 -1.01015,-0.14292 -1.01015,0.44545 0,0.58838 0.45456,1.06977 1.01015,1.06977 0.55558,0 1.01015,-0.20045 1.01015,-0.44545 z"
           id="path4638"
           inkscape:connector-curvature="0"
           transform="matrix(7.4999995,0,0,-7.4999995,1296.4285,4356.7878)" />
        <path
           style="fill:#cde6f3;fill-opacity:1;stroke:#000000;stroke-width:0.41996893;stroke-miterlimit:4;stroke-dasharray:none;stroke-dashoffset:0;stroke-opacity:0"
           d="m 58.452302,508.71245 c -0.17362,-0.8681 -0.315673,-6.32292 -0.315673,-12.12183 v -10.54347 h 2.272843 c 2.254213,0 3.009534,-0.61938 1.47392,-1.20865 -0.439407,-0.16862 -1.462187,-0.30658 -2.272843,-0.30658 h -1.47392 V 453.97481 423.4177 h 2.272843 c 1.250064,0 2.272844,-0.22729 2.272844,-0.50508 0,-0.27779 -1.02278,-0.50508 -2.272844,-0.50508 h -2.272843 v -30.55711 -30.55712 h 1.47392 c 0.810656,0 1.833436,-0.13795 2.272843,-0.30657 1.535614,-0.58927 0.780293,-1.20866 -1.47392,-1.20866 h -2.272843 v -30.80965 -30.80965 h 96.722111 96.7221 v 27.51983 27.51983 l -4.16688,3.5021 c -2.29178,1.92616 -12.46275,10.25526 -22.60216,18.50912 -10.13941,8.25385 -18.66257,15.23748 -18.94036,15.51918 -1.72954,1.75383 3.04344,-1.98009 19.09771,-14.94021 9.94815,-8.03083 18.21339,-14.47568 18.3672,-14.32187 0.48299,0.48299 -24.59928,25.09012 -39.79105,39.03727 -34.47409,31.64973 -76.59215,64.80954 -117.295408,92.34739 -16.571157,11.21125 -21.353857,14.11876 -20.227976,12.29705 0.202817,-0.32817 -1.229431,0.69461 -3.182775,2.27284 -1.953343,1.57823 -3.66845,2.8695 -3.81135,2.8695 -0.142899,0 -0.401869,-0.71026 -0.575489,-1.57836 z m 9.533315,-4.98763 c 0.502796,-0.55558 0.800533,-1.01015 0.661637,-1.01015 -0.138896,0 -0.663917,0.45457 -1.166714,1.01015 -0.502796,0.55559 -0.800533,1.01016 -0.661637,1.01016 0.138896,0 0.663917,-0.45457 1.166714,-1.01016 z m 2.842344,-2.39911 c 0.62825,-0.80108 0.610385,-0.81894 -0.190694,-0.1907 -0.486136,0.38126 -0.883883,0.77901 -0.883883,0.88389 0,0.4157 0.414761,0.14814 1.074577,-0.69319 z m 93.944189,-76.77159 c 0.62825,-0.80108 0.61039,-0.81895 -0.1907,-0.1907 -0.48613,0.38126 -0.88388,0.779 -0.88388,0.88388 0,0.4157 0.41476,0.14815 1.07458,-0.69318 z m 5.55584,-4.54569 c 0.62825,-0.80108 0.61038,-0.81895 -0.1907,-0.1907 -0.48613,0.38126 -0.88388,0.77901 -0.88388,0.88389 0,0.4157 0.41476,0.14814 1.07458,-0.69319 z m 2.71349,-2.14657 c 0.5028,-0.55559 0.80054,-1.01016 0.66164,-1.01016 -0.13889,0 -0.66392,0.45457 -1.16671,1.01016 -0.5028,0.55558 -0.80054,1.01015 -0.66164,1.01015 0.13889,0 0.66391,-0.45457 1.16671,-1.01015 z m 2.52538,-2.02031 c 0.5028,-0.55558 0.80054,-1.01015 0.66164,-1.01015 -0.13889,0 -0.66391,0.45457 -1.16671,1.01015 -0.5028,0.55559 -0.80054,1.01015 -0.66164,1.01015 0.13889,0 0.66391,-0.45456 1.16671,-1.01015 z m 2.52538,-2.0203 c 0.5028,-0.55559 0.80054,-1.01016 0.66164,-1.01016 -0.13889,0 -0.66391,0.45457 -1.16671,1.01016 -0.5028,0.55558 -0.80054,1.01015 -0.66164,1.01015 0.13889,0 0.66392,-0.45457 1.16671,-1.01015 z m 3.03046,-2.52539 c 0.5028,-0.55558 0.80054,-1.01015 0.66164,-1.01015 -0.13889,0 -0.66392,0.45457 -1.16671,1.01015 -0.5028,0.55559 -0.80054,1.01016 -0.66164,1.01016 0.13889,0 0.66391,-0.45457 1.16671,-1.01016 z m 2.52538,-2.0203 c 0.5028,-0.55558 0.80054,-1.01015 0.66164,-1.01015 -0.13889,0 -0.66391,0.45457 -1.16671,1.01015 -0.5028,0.55558 -0.80054,1.01015 -0.66164,1.01015 0.13889,0 0.66392,-0.45457 1.16671,-1.01015 z m 2.77792,-2.27284 c 0.65244,-0.69448 1.0726,-1.26269 0.9337,-1.26269 -0.13889,0 -0.78634,0.56821 -1.43877,1.26269 -0.65244,0.69448 -1.0726,1.26269 -0.9337,1.26269 0.13889,0 0.78634,-0.56821 1.43877,-1.26269 z m 2.77792,-2.27285 c 0.5028,-0.55558 0.80054,-1.01015 0.66164,-1.01015 -0.13889,0 -0.66392,0.45457 -1.16671,1.01015 -0.5028,0.55559 -0.80054,1.01016 -0.66164,1.01016 0.13889,0 0.66391,-0.45457 1.16671,-1.01016 z M 202.08337,394.197 c 0.67343,-0.6898 0.67343,-0.71936 0,-0.26605 -1.62348,1.09281 -11.61676,9.35542 -11.61676,9.60493 0,0.28158 10.3391,-8.03017 11.61676,-9.33888 z"
           id="path4635"
           inkscape:connector-curvature="0"
           transform="matrix(7.4999995,0,0,-7.4999995,1296.4285,4356.7878)" />
        <path
           style="fill:#cde6f3;fill-opacity:1;stroke:#000000;stroke-width:0.41996893;stroke-miterlimit:4;stroke-dasharray:none;stroke-dashoffset:0;stroke-opacity:0"
           d="m 58.454972,509.15439 c -0.167502,-0.62503 -0.307653,-6.07985 -0.311446,-12.12183 l -0.0069,-10.98541 h 2.272843 c 1.250064,0 2.272844,-0.20077 2.272844,-0.44617 0,-0.51079 -1.737157,-1.05201 -3.409265,-1.06216 l -1.136422,-0.007 V 453.97481 423.4177 h 2.272843 c 1.250064,0 2.272844,-0.22729 2.272844,-0.50508 0,-0.27779 -1.02278,-0.50508 -2.272844,-0.50508 h -2.272843 v -30.55711 -30.55712 l 1.136422,-0.007 c 1.672108,-0.0102 3.409265,-0.55137 3.409265,-1.06217 0,-0.24539 -1.02278,-0.44617 -2.272844,-0.44617 h -2.272843 v -30.80965 -30.80965 h 96.722114 96.7221 l -0.006,27.65293 -0.006,27.65292 -15.42939,12.59799 c -8.48617,6.92889 -15.56229,12.81302 -15.72472,13.07583 -0.16243,0.26282 4.86965,-3.66454 11.18239,-8.72747 6.31275,-5.06292 11.59132,-9.09171 11.73017,-8.95286 0.89139,0.89139 -37.64744,37.70318 -57.65932,55.07542 -32.97183,28.62272 -67.91189,55.30402 -104.627135,79.89648 -11.141023,7.46243 -14.703852,9.60302 -15.184096,9.12278 -0.144539,-0.14454 -1.653394,0.86238 -3.353011,2.23761 -1.699586,1.37522 -3.237426,2.5004 -3.417391,2.5004 -0.179965,0 -0.464256,-0.51139 -0.631758,-1.13642 z M 186.49043,406.87645 c 0.62825,-0.80108 0.61039,-0.81895 -0.1907,-0.1907 -0.48613,0.38126 -0.88388,0.77901 -0.88388,0.88388 0,0.4157 0.41476,0.14815 1.07458,-0.69318 z m 8.08122,-6.56599 c 0.62825,-0.80109 0.61039,-0.81895 -0.1907,-0.1907 -0.48613,0.38126 -0.88388,0.779 -0.88388,0.88388 0,0.4157 0.41476,0.14815 1.07458,-0.69318 z m 2.71349,-2.14658 c 0.5028,-0.55558 0.80054,-1.01015 0.66164,-1.01015 -0.13889,0 -0.66392,0.45457 -1.16671,1.01015 -0.5028,0.55559 -0.80054,1.01015 -0.66164,1.01015 0.13889,0 0.66391,-0.45456 1.16671,-1.01015 z m 2.52538,-2.0203 c 0.5028,-0.55559 0.80054,-1.01016 0.66164,-1.01016 -0.13889,0 -0.66391,0.45457 -1.16671,1.01016 -0.5028,0.55558 -0.80054,1.01015 -0.66164,1.01015 0.13889,0 0.66392,-0.45457 1.16671,-1.01015 z m 11.11168,-9.09138 c 0.5028,-0.55558 0.80054,-1.01015 0.66164,-1.01015 -0.13889,0 -0.66392,0.45457 -1.16671,1.01015 -0.5028,0.55559 -0.80054,1.01016 -0.66164,1.01016 0.13889,0 0.66391,-0.45457 1.16671,-1.01016 z m 3.03046,-2.52538 c 0.5028,-0.55558 0.80054,-1.01015 0.66164,-1.01015 -0.1389,0 -0.66392,0.45457 -1.16672,1.01015 -0.50279,0.55559 -0.80053,1.01015 -0.66164,1.01015 0.1389,0 0.66392,-0.45456 1.16672,-1.01015 z m 2.52538,-2.0203 c 0.5028,-0.55559 0.80054,-1.01016 0.66164,-1.01016 -0.13889,0 -0.66392,0.45457 -1.16671,1.01016 -0.5028,0.55558 -0.80054,1.01015 -0.66164,1.01015 0.13889,0 0.66391,-0.45457 1.16671,-1.01015 z m 2.52538,-2.02031 c 0.5028,-0.55558 0.80054,-1.01015 0.66164,-1.01015 -0.13889,0 -0.66392,0.45457 -1.16671,1.01015 -0.5028,0.55559 -0.80054,1.01015 -0.66164,1.01015 0.13889,0 0.66391,-0.45456 1.16671,-1.01015 z"
           id="path4637"
           inkscape:connector-curvature="0"
           transform="matrix(7.4999995,0,0,-7.4999995,1296.4285,4356.7878)" />
        <path
           style="fill:#cde6f3;fill-opacity:1;stroke:#000000;stroke-width:0.41996893;stroke-miterlimit:4;stroke-dasharray:none;stroke-dashoffset:0;stroke-opacity:0"
           d="m 58.443205,509.49189 c -0.168617,-0.43941 -0.306576,-5.89423 -0.306576,-12.12183 v -11.32291 h 2.272843 c 1.250064,0 2.272844,-0.21336 2.272844,-0.47413 0,-0.26077 -1.02278,-0.6275 -2.272844,-0.81496 l -2.272843,-0.34083 V 453.91746 423.4177 h 2.272843 c 1.250064,0 2.272844,-0.22729 2.272844,-0.50508 0,-0.27779 -1.02278,-0.50508 -2.272844,-0.50508 h -2.272843 v -30.49977 -30.49976 l 2.272843,-0.34083 c 2.938219,-0.44062 2.938219,-1.2891 0,-1.2891 h -2.272843 v -30.80965 -30.80965 h 96.722111 96.7221 v 27.6814 27.68139 l -10.35406,8.46205 c -5.69474,4.65412 -10.35406,8.56395 -10.35406,8.6885 0,0.12455 2.74223,-1.9578 6.09384,-4.62743 3.35161,-2.66963 6.24949,-4.69676 6.43972,-4.50471 0.67189,0.67827 -33.50061,33.59391 -51.19859,49.31552 -24.17427,21.47467 -57.34149,47.84893 -84.82612,67.45292 -19.07831,13.608 -38.830696,26.71048 -41.122179,27.27784 -0.717327,0.17761 -2.51831,1.30879 -4.002182,2.51374 -2.978732,2.41882 -3.365738,2.56006 -3.814004,1.39189 z M 224.37115,376.06679 c 0.62825,-0.80108 0.61039,-0.81894 -0.1907,-0.19069 -0.48613,0.38126 -0.88388,0.779 -0.88388,0.88388 0,0.4157 0.41476,0.14815 1.07458,-0.69319 z m 2.71349,-2.14657 c 0.5028,-0.55558 0.80054,-1.01015 0.66164,-1.01015 -0.13889,0 -0.66391,0.45457 -1.16671,1.01015 -0.5028,0.55558 -0.80054,1.01015 -0.66164,1.01015 0.13889,0 0.66391,-0.45457 1.16671,-1.01015 z m 2.52538,-2.0203 c 0.5028,-0.55559 0.80054,-1.01016 0.66164,-1.01016 -0.13889,0 -0.66391,0.45457 -1.16671,1.01016 -0.5028,0.55558 -0.80054,1.01015 -0.66164,1.01015 0.13889,0 0.66392,-0.45457 1.16671,-1.01015 z"
           id="path4639"
           inkscape:connector-curvature="0"
           transform="matrix(7.4999995,0,0,-7.4999995,1296.4285,4356.7878)" />
        <path
           style="fill:#cde6f3;fill-opacity:1;stroke:#000000;stroke-width:0.41996893;stroke-miterlimit:4;stroke-dasharray:none;stroke-dashoffset:0;stroke-opacity:0"
           d="m 58.443205,509.49189 c -0.168617,-0.43941 -0.306576,-5.89423 -0.306576,-12.12183 v -11.32291 h 2.272843 c 1.250064,0 2.272844,-0.20148 2.272844,-0.44773 0,-0.24625 -1.02278,-0.6011 -2.272844,-0.78856 l -2.272843,-0.34083 V 453.94386 423.4177 h 2.020305 c 1.111168,0 2.020305,-0.22729 2.020305,-0.50508 0,-0.27779 -0.909137,-0.50508 -2.020305,-0.50508 h -2.020305 v -30.51272 -30.51271 l 2.017659,-0.34088 c 2.849575,-0.48144 3.025946,-1.26315 0.284993,-1.26315 h -2.302652 v -30.80965 -30.80965 h 96.722111 96.7221 v 27.72222 27.72221 l -5.14774,4.22386 c -7.02086,5.7608 -6.88017,5.63826 -5.96394,5.19464 0.41669,-0.20175 1.15676,-0.70966 1.6446,-1.12869 0.48784,-0.41903 1.04495,-0.6039 1.23802,-0.41083 0.44708,0.44708 -9.24958,10.21233 -25.35851,25.53789 -31.80704,30.26026 -58.20586,52.46726 -94.72375,79.68277 -23.03503,17.1672 -55.016308,39.00881 -57.186835,39.05574 -0.342348,0.007 -1.968941,1.03018 -3.614652,2.27284 -3.324419,2.51024 -3.58562,2.60502 -4.024828,1.46046 z M 234.97775,367.4805 c 0.62825,-0.80108 0.61039,-0.81895 -0.19069,-0.1907 -0.84133,0.65982 -1.10889,1.07458 -0.69319,1.07458 0.10488,0 0.50263,-0.39775 0.88388,-0.88388 z m 4.48126,-3.52202 c 0,-0.38356 -1.89431,0.86874 -2.56692,1.69695 -0.44311,0.54562 -0.0903,0.42365 0.92542,-0.31995 0.90283,-0.66092 1.6415,-1.28057 1.6415,-1.377 z"
           id="path4641"
           inkscape:connector-curvature="0"
           transform="matrix(7.4999995,0,0,-7.4999995,1296.4285,4356.7878)" />
        <path
           style="fill:#cde6f3;fill-opacity:1;stroke:#000000;stroke-width:0.14848144;stroke-miterlimit:4;stroke-dasharray:none;stroke-dashoffset:0;stroke-opacity:0"
           d="m 58.135558,511.02799 c 0,-0.72939 0.06996,-1.06323 0.223214,-1.06511 0.159912,-0.002 0.165782,-0.0399 0.0207,-0.13393 -0.147108,-0.0953 -0.210671,-3.36259 -0.232326,-11.942 l -0.02981,-11.81078 2.054778,-0.0652 c 1.900446,-0.0603 2.7237,-0.27316 2.38124,-0.61562 -0.06158,-0.0616 -1.080779,-0.0994 -2.264881,-0.0841 l -2.152913,0.0278 v -30.99028 -30.99029 l 1.651786,-0.002 c 1.851083,-0.003 2.455357,-0.11201 2.455357,-0.444 0,-0.33199 -0.604274,-0.44126 -2.455357,-0.44399 l -1.651786,-0.002 v -30.98214 -30.98214 h 2.142857 c 1.705419,0 2.142857,-0.0504 2.142857,-0.24703 0,-0.35663 -0.577189,-0.46207 -2.544643,-0.46482 l -1.741071,-0.002 V 328.98347 298.1799 h 96.78571 96.78572 v 23.98906 c 0,13.19399 0.0484,25.66943 0.10759,27.72322 l 0.10757,3.73415 -2.99436,3.125 c -14.60306,15.24012 -25.81178,26.30571 -40.79894,40.27793 -3.79729,3.54014 -5.93595,5.47957 -15.42806,13.99087 -4.12189,3.69598 -13.84953,12.08624 -18.22595,15.7202 -2.0625,1.7126 -5.39732,4.48738 -7.41071,6.16618 -6.85211,5.71341 -19.81753,16.10611 -24.28571,19.46673 -1.03125,0.77562 -4.64733,3.55329 -8.03572,6.17259 -3.38839,2.6193 -8.16964,6.2338 -10.625,8.03221 -2.45536,1.79841 -5.38839,3.96583 -6.51786,4.81649 -1.12946,0.85065 -3.25892,2.37874 -4.73214,3.39574 -1.47321,1.01701 -3.69357,2.58934 -4.93413,3.49408 -9.794017,7.14269 -33.808811,23.49732 -46.834618,31.89542 l -2.963392,1.91058 z m 1.026786,-26.36404 c -0.171875,-0.0449 -0.453125,-0.0449 -0.625,0 -0.171875,0.0449 -0.03125,0.0817 0.3125,0.0817 0.34375,0 0.484375,-0.0367 0.3125,-0.0817 z M 193.87262,409.47454 c 0.22212,-0.28322 0.21581,-0.28954 -0.0674,-0.0674 -0.17187,0.13479 -0.3125,0.27542 -0.3125,0.3125 0,0.14697 0.14664,0.0524 0.37992,-0.24508 z m 5.35715,-4.82143 c 0.22212,-0.28322 0.2158,-0.28954 -0.0674,-0.0674 -0.17187,0.1348 -0.3125,0.27542 -0.3125,0.3125 0,0.14697 0.14665,0.0524 0.37993,-0.24508 z m 2.03079,-1.83035 c 0.17776,-0.19643 0.28303,-0.35715 0.23392,-0.35715 -0.0491,0 -0.23473,0.16072 -0.41249,0.35715 -0.17777,0.19642 -0.28304,0.35714 -0.23393,0.35714 0.0491,0 0.23473,-0.16072 0.4125,-0.35714 z m 2.25492,-2.09822 c 0.22212,-0.28322 0.2158,-0.28954 -0.0674,-0.0674 -0.17188,0.13479 -0.3125,0.27542 -0.3125,0.3125 0,0.14697 0.14664,0.0524 0.37992,-0.24508 z m 2.5,-2.32143 c 0.22212,-0.28322 0.2158,-0.28954 -0.0674,-0.0674 -0.17188,0.1348 -0.3125,0.27542 -0.3125,0.3125 0,0.14697 0.14664,0.0524 0.37992,-0.24508 z m 2.74508,-2.54464 c 0.17776,-0.19643 0.28303,-0.35714 0.23392,-0.35714 -0.0491,0 -0.23473,0.16071 -0.41249,0.35714 -0.17777,0.19643 -0.28303,0.35714 -0.23393,0.35714 0.0491,0 0.23473,-0.16071 0.4125,-0.35714 z m 2.85714,-2.67857 c 0.17777,-0.19643 0.28303,-0.35714 0.23393,-0.35714 -0.0491,0 -0.23473,0.16071 -0.4125,0.35714 -0.17777,0.19643 -0.28303,0.35714 -0.23392,0.35714 0.0491,0 0.23473,-0.16071 0.41249,-0.35714 z m 3.21429,-3.03572 c 0.17776,-0.19642 0.28303,-0.35714 0.23392,-0.35714 -0.0491,0 -0.23473,0.16072 -0.41249,0.35714 -0.17777,0.19643 -0.28304,0.35715 -0.23393,0.35715 0.0491,0 0.23473,-0.16072 0.4125,-0.35715 z m 4.01785,-3.9061 c 0,-0.0491 -0.24107,0.14168 -0.53571,0.42396 -0.29464,0.28229 -0.53571,0.55343 -0.53571,0.60253 0,0.0491 0.24107,-0.14167 0.53571,-0.42396 0.29464,-0.28228 0.53571,-0.55342 0.53571,-0.60253 z m 4.10715,-3.92857 c 0,-0.0491 -0.24107,0.14167 -0.53572,0.42396 -0.29464,0.28229 -0.53571,0.55342 -0.53571,0.60253 0,0.0491 0.24107,-0.14167 0.53571,-0.42396 0.29465,-0.28228 0.53572,-0.55342 0.53572,-0.60253 z m 4.375,-4.12961 c 0.38361,-0.39286 0.6573,-0.71429 0.60819,-0.71429 -0.0491,0 -0.40315,0.32143 -0.78676,0.71429 -0.38362,0.39286 -0.65731,0.71428 -0.6082,0.71428 0.0491,0 0.40315,-0.32142 0.78677,-0.71428 z m 8.57143,-8.39286 c 1.077,-1.08036 1.91801,-1.96428 1.86891,-1.96428 -0.0491,0 -0.97049,0.88392 -2.04749,1.96428 -1.077,1.08036 -1.91801,1.96429 -1.8689,1.96429 0.0491,0 0.97047,-0.88393 2.04748,-1.96429 z m -1.53106,-1.68053 c 0.13487,-0.1625 0.14581,-0.29108 0.0308,-0.36214 -0.0981,-0.0606 -0.2655,0.0528 -0.3721,0.25195 -0.22045,0.41193 0.0251,0.4912 0.34127,0.11019 z m 0.90606,-0.99804 c 0,-0.0982 -0.0354,-0.17857 -0.0788,-0.17857 -0.0433,0 -0.12841,0.0804 -0.18911,0.17857 -0.0607,0.0982 -0.0253,0.17857 0.0788,0.17857 0.10401,0 0.18911,-0.0804 0.18911,-0.17857 z m 1.8456,-1.31177 c 0.11438,0.0655 0.1484,0.0533 0.0756,-0.0271 -0.0728,-0.0804 -0.034,-0.27406 0.0862,-0.43041 0.13395,-0.17419 0.0642,-0.15255 -0.18011,0.0559 -0.2193,0.1871 -0.39237,0.42817 -0.38462,0.53572 0.008,0.11184 0.0528,0.0995 0.10455,-0.0288 0.0497,-0.12338 0.18402,-0.17076 0.29839,-0.1053 z m 5.0294,-2.43823 c 0.17776,-0.19643 0.28303,-0.35714 0.23392,-0.35714 -0.0491,0 -0.23473,0.16071 -0.4125,0.35714 -0.17776,0.19643 -0.28303,0.35714 -0.23392,0.35714 0.0491,0 0.23473,-0.16071 0.4125,-0.35714 z M 59.342997,361.09292 c -0.17073,-0.0447 -0.492159,-0.0463 -0.714286,-0.004 -0.222127,0.0427 -0.08244,0.0793 0.310418,0.0813 0.392857,0.002 0.574598,-0.033 0.403868,-0.0777 z"
           id="path4643"
           inkscape:connector-curvature="0"
           transform="matrix(7.4999995,0,0,-7.4999995,1296.4285,4356.7878)" />
        <path
           style="fill:#cde6f3;fill-opacity:1;stroke:#000000;stroke-width:0.14848144;stroke-miterlimit:4;stroke-dasharray:none;stroke-dashoffset:0;stroke-opacity:0"
           d="m 58.135558,511.13326 c 0,-0.5324 0.06201,-1.00633 0.137803,-1.05316 0.07579,-0.0468 0.08218,-0.75472 0.0142,-1.57304 -0.06798,-0.81834 -0.129994,-6.20886 -0.137804,-11.97895 l -0.0142,-10.49107 1.651786,-0.0211 c 1.900813,-0.0243 2.662796,-0.15368 2.768006,-0.46995 0.05678,-0.17068 -0.454594,-0.22321 -2.172768,-0.22321 h -2.247024 v -30.98215 -30.98214 h 1.595518 c 0.877535,0 1.821731,-0.0864 2.098214,-0.19191 0.484852,-0.1851 0.490392,-0.20095 0.156066,-0.44643 -0.244397,-0.17945 -0.863234,-0.25452 -2.098214,-0.25452 h -1.751584 v -30.98214 -30.98214 h 2.043033 c 1.894045,0 2.514847,-0.1445 2.157223,-0.50213 -0.06667,-0.0667 -1.039003,-0.15035 -2.160738,-0.18596 l -2.039518,-0.0647 v -30.7843 -30.7843 h 96.775953 96.77596 l 0.0544,27.72321 0.0544,27.72322 -0.69894,0.80357 c -2.34741,2.69884 -20.0084,20.57914 -28.31891,28.6706 -4.54392,4.42414 -12.17345,11.63782 -16.68132,15.77208 -1.9726,1.80912 -3.98833,3.66181 -4.4794,4.1171 -7.40868,6.8688 -25.87256,22.83127 -35.43031,30.63034 -12.23517,9.98384 -17.38041,14.0966 -24.92683,19.92483 -7.05623,5.44966 -22.28111,16.87244 -26.42857,19.82859 -13.70967,9.77173 -17.056533,12.11783 -27.232147,19.08942 -5.275884,3.61466 -25.041257,16.81397 -28.169643,18.81168 l -1.294643,0.82673 z M 218.33691,386.79597 c 0.22212,-0.28323 0.2158,-0.28954 -0.0674,-0.0674 -0.17188,0.13479 -0.3125,0.27542 -0.3125,0.3125 0,0.14697 0.14664,0.0524 0.37992,-0.24508 z m 4.10714,-3.92857 c 0.22212,-0.28323 0.21581,-0.28954 -0.0674,-0.0674 -0.29746,0.23328 -0.39205,0.37992 -0.24508,0.37992 0.0371,0 0.17771,-0.14063 0.3125,-0.3125 z m 4.70937,-4.50893 c 0.17776,-0.19643 0.28303,-0.35714 0.23392,-0.35714 -0.0491,0 -0.23473,0.16071 -0.4125,0.35714 -0.17776,0.19643 -0.28303,0.35714 -0.23392,0.35714 0.0491,0 0.23473,-0.16071 0.4125,-0.35714 z m 8.75,-8.57143 c 0.7811,-0.78571 1.38001,-1.42857 1.33091,-1.42857 -0.0491,0 -0.72838,0.64286 -1.50949,1.42857 -0.7811,0.78572 -1.38001,1.42857 -1.3309,1.42857 0.0491,0 0.72837,-0.64285 1.50948,-1.42857 z"
           id="path4645"
           inkscape:connector-curvature="0"
           transform="matrix(7.4999995,0,0,-7.4999995,1296.4285,4356.7878)" />
        <path
           style="fill:#cde6f3;fill-opacity:1;stroke:#000000;stroke-width:0.03712036;stroke-miterlimit:4;stroke-dasharray:none;stroke-dashoffset:0;stroke-opacity:0"
           d="m 145.57193,133.83477 c -1.22768,-0.65197 -3.96987,-2.10049 -6.09375,-3.21893 -2.12389,-1.11845 -4.81585,-2.55056 -5.98215,-3.18249 -2.37736,-1.2881 -3.73531,-2.01095 -5.53571,-2.94669 -0.67522,-0.35094 -2.05134,-1.09403 -3.05804,-1.65132 -4.37636,-2.42265 -7.86678,-4.26394 -10.17857,-5.36947 -1.55629,-0.74424 -5.59547,-3.03879 -12.12053,-6.88536 C 95.939098,106.652 91.871112,104.15163 83.429069,98.795204 71.186977,91.027676 65.080567,87.199978 62.491569,85.670892 62.123265,85.453368 61.329738,84.97086 60.728176,84.598651 c -1.612319,-0.9976 -2.092907,-1.2822 -2.176342,-1.288807 -0.101305,-0.008 -0.129975,0.208331 -0.188523,1.422644 -0.10749,2.22942 -0.141457,5.112074 -0.166093,14.095982 l -0.02592,9.45313 h 0.852233 c 0.493826,0 0.895359,0.0195 0.954779,0.0464 0.0564,0.0255 0.373753,0.10411 0.705226,0.17467 l 0.602679,0.1283 -1.640625,0.004 -1.640625,0.004 V 95.469095 c 0,-7.243303 0.008,-13.169643 0.01772,-13.169643 0.0097,0 2.957851,1.871412 6.551339,4.158692 8.408382,5.351993 16.817707,10.519354 24.256831,14.905336 1.055803,0.62248 3.054687,1.82794 4.441964,2.67878 3.212336,1.9702 11.634291,6.94871 14.687501,8.6823 1.28906,0.73192 3.43862,1.96355 4.77678,2.73696 4.42814,2.55928 12.43942,7.09598 14.93304,8.45642 1.35045,0.73675 3.56027,1.96702 4.91071,2.73391 2.63525,1.49651 6.58307,3.66061 9.93304,5.44507 2.39689,1.27676 5.27074,2.83323 5.33259,2.88812 0.13413,0.11901 -0.25501,-0.0778 -2.27455,-1.15027 z"
           id="path4647"
           inkscape:connector-curvature="0"
           transform="matrix(7.4999995,0,0,-7.4999995,1296.4285,4356.7878)" />
      </g>
    </g>
  </g>
</svg>
